<svg xmlns="http://www.w3.org/2000/svg" width="811.599" height="548.945" viewBox="0 0 811.599 548.945"><g id="ai-chatbots-solution" transform="translate(-.001)"><g id="Gruppe_1317" transform="translate(-40.35 -27.35)"><g id="freepik--background-complete--inject-57" transform="translate(40.35 57.736)"><path id="Pfad_27755" d="M334.2 79.3H154l29.4 21.2v41.7a8.706 8.706 0 008.7 8.7h142.1a8.706 8.706 0 008.7-8.7V88.1a8.858 8.858 0 00-8.7-8.8z" fill="#f5f5f5"/><path id="Pfad_27756" d="M326.7 108.8c0 .2-27.2.3-60.7.3s-60.7-.1-60.7-.3 27.2-.3 60.7-.3 60.7.1 60.7.3z" fill="#e0e0e0"/><path id="Pfad_27757" d="M326.7 124.8c0 .2-27.2.3-60.7.3s-60.7-.1-60.7-.3 27.2-.3 60.7-.3 60.7.1 60.7.3z" fill="#e0e0e0"/><path id="Pfad_27758" d="M58.9 0h128.6l-20.9 15.1v29.8a6.231 6.231 0 01-6.2 6.2H58.9a6.146 6.146 0 01-6.1-6.2V6.2A6.083 6.083 0 0158.9 0z" fill="#f5f5f5"/><path id="Pfad_27759" d="M64.2 21c0 .1 19.4.2 43.3.2s43.3-.1 43.3-.2-19.4-.2-43.3-.2-43.3.1-43.3.2z" fill="#e0e0e0"/><path id="Pfad_27760" d="M64.2 32.4c0 .1 19.4.2 43.3.2s43.3-.1 43.3-.2-19.4-.2-43.3-.2-43.3.1-43.3.2z" fill="#e0e0e0"/><path id="Pfad_27761" d="M683 114.7h128.6l-21 15.2v29.7a6.231 6.231 0 01-6.2 6.2H683a6.231 6.231 0 01-6.2-6.2V121a6.128 6.128 0 016.2-6.3z" fill="#f5f5f5"/><path id="Pfad_27762" d="M688.4 135.7c0 .1 19.3.2 43.3.2s43.3-.1 43.3-.2-19.3-.2-43.3-.2-43.3.1-43.3.2z" fill="#e0e0e0"/><path id="Pfad_27763" d="M688.4 147.1c0 .1 19.3.2 43.3.2s43.3-.1 43.3-.2-19.3-.2-43.3-.2-43.3.1-43.3.2z" fill="#e0e0e0"/><path id="Pfad_27764" d="M665.7 458.5c-.9-3.4 1.4-6.8 3.9-9.3s5.5-4.6 6.8-7.9c2.1-5.3-.7-12.1 3-16.5 2.1-2.6 5.9-3.4 7.8-6.2a12.385 12.385 0 001.7-5 50.729 50.729 0 0112.7-23.4 43.547 43.547 0 01-5 22.6c-1.5 2.8-3.3 5.5-3.8 8.6-.8 5 2 10.2.7 15.2-1.4 5.6-7.8 9.4-8.2 15.2-.3 4.9 4 9.3 3.6 14.2a13.227 13.227 0 01-2.2 5.8c-3.8 6.3-9.5 10.6-17.9 10.4l-10.4.3z" fill="#f5f5f5"/><path id="Pfad_27765" d="M656.4 482.7a8.783 8.783 0 01-2.8-.1 21.364 21.364 0 01-3.4-.9 12.748 12.748 0 01-4.1-2.3 5.548 5.548 0 01-1.7-2.3 10.588 10.588 0 01-.5-3.1c0-1.1-.1-2.2-.2-3.4a9.333 9.333 0 00-1.2-3.3c-1.2-2.2-3.2-4.2-3.9-7.1s-.2-6 .3-9.1 1-6.5-.2-9.7-3.4-6.2-4.5-9.9-.6-7.7-.8-11.6a16.837 16.837 0 00-1.3-5.8c-.8-1.8-2-3.6-2.9-5.5-1.8-3.9-2.1-8.3-2.6-12.7-.2-2.2-.5-4.4-.7-6.6a29.378 29.378 0 00-1.1-6.6c-.7-2.2-1.5-4.3-2.4-6.4a19.571 19.571 0 01-1.2-3.4c-.2-1.2-.2-2.4-.3-3.6a43.392 43.392 0 01.3-7.2c.3-2.4.7-4.8 1-7.2v-.9l.4.2a16.963 16.963 0 015.6 4.7 25.605 25.605 0 013.4 6.3c1.7 4.5 2.3 9.1 3.2 13.6a37.484 37.484 0 004.2 12.6c1.1 1.8 2.5 3.6 3.7 5.4a14.649 14.649 0 012.5 5.9c.6 4.4-1.8 8.2-1.4 12.1a12.948 12.948 0 001.9 5.4 49.012 49.012 0 003.1 4.8 28.669 28.669 0 012.8 4.8 15.2 15.2 0 011.2 5.2c.2 3.5-.3 6.8 0 10a22.617 22.617 0 002.5 8.5c1.2 2.6 2.6 4.8 3.8 7.1.6 1.1 1.1 2.2 1.6 3.3a20.245 20.245 0 01.9 3.3 19.449 19.449 0 010 5.9 14.919 14.919 0 01-3 7.5c-.3.3-.5.6-.8.9a4.351 4.351 0 01-.7.6l-.7.6a17.971 17.971 0 001.9-2 15.736 15.736 0 002.9-7.5 22.53 22.53 0 00-.1-5.8 16.811 16.811 0 00-.9-3.2c-.5-1.1-1-2.2-1.6-3.3-1.2-2.2-2.6-4.5-3.8-7.1a23.738 23.738 0 01-2.6-8.7c-.3-3.2.2-6.5 0-10a14.637 14.637 0 00-1.2-5 43.91 43.91 0 00-2.7-4.7 56.551 56.551 0 01-3.1-4.8 13.81 13.81 0 01-1.9-5.6c-.5-4.1 1.9-8 1.3-12.1a15.1 15.1 0 00-2.4-5.7c-1.2-1.8-2.5-3.5-3.7-5.4a38.735 38.735 0 01-4.3-12.8c-.9-4.5-1.4-9.1-3.1-13.5a24.647 24.647 0 00-3.3-6.2 14.359 14.359 0 00-5.3-4.5l.5-.3v.4c-.3 2.4-.7 4.8-1 7.2a41.751 41.751 0 00-.3 7.1 20.678 20.678 0 00.3 3.5 17.548 17.548 0 001.2 3.2c.9 2.1 1.7 4.3 2.4 6.5a31.136 31.136 0 011.1 6.8c.2 2.2.5 4.5.7 6.6.5 4.4.8 8.7 2.5 12.5.9 1.9 2 3.6 2.9 5.5a17.539 17.539 0 011.4 6c.2 4-.3 7.9.7 11.5s3.3 6.5 4.4 9.8.7 6.9.2 10-1 6.2-.4 8.9c.7 2.8 2.5 4.8 3.8 7a10.378 10.378 0 011.2 3.5c.1 1.1.2 2.3.2 3.4a10.321 10.321 0 00.4 3 5.028 5.028 0 001.6 2.2 13.409 13.409 0 004 2.3 20.244 20.244 0 003.3.9 14.919 14.919 0 002.1.2 1.726 1.726 0 00.7.2z" fill="#e0e0e0"/><path id="Pfad_27766" d="M624.3 360.4a.367.367 0 01.1.3 2.919 2.919 0 00.2.9c.2.8.4 2.1.8 3.6s1.3 3.3 2.1 5.4c.9 2.4 1.7 4.9 2.4 7.4.8 2.8 1.5 5.8 2.2 9.1a36.253 36.253 0 003.3 10.1c.8 1.7 1.8 3.4 2.5 5.3a29.281 29.281 0 011.5 6 110.806 110.806 0 002.2 12.6c2 8.5 4 16.6 5.7 24l4.8 19.6 3.2 13.2c.3 1.5.6 2.7.8 3.6a6.365 6.365 0 00.2.9v.3a.367.367 0 01-.1-.3l-.3-.9c-.2-.9-.6-2.1-1-3.6-.8-3.2-2-7.6-3.4-13.2l-5-19.5-5.8-24c-.9-4.2-1.7-8.4-2.2-12.6a23.386 23.386 0 00-1.4-5.8c-.7-1.8-1.7-3.5-2.5-5.2a37.551 37.551 0 01-3.3-10.3c-.7-3.3-1.3-6.4-2.1-9.1s-1.5-5.2-2.3-7.4a51.434 51.434 0 01-2-5.5c-.4-1.6-.5-2.8-.7-3.6a2.919 2.919 0 00-.2-.9c.3-.2.3-.3.3-.4z" fill="#e0e0e0"/><path id="Pfad_27767" d="M654.5 482.8c-6.8-4.1-8.6-16.3-5.8-23.6s7.8-14 8.7-21.9c.6-6-1.3-12.2.1-18.1 1.9-7.9 9.7-14.1 9.7-22.2 0-4.6-2.6-8.9-2.4-13.5.3-5.6 4.6-10.1 7.3-15 4.1-7.6 4.4-16.5 5.9-25s4.7-17.6 12.3-21.7c1.1 7.2 2.9 12.2 2.3 21.9-.2 3.5-4.4 10.2-5 17.9-.4 4.6-.6 9.2-.9 13.8s-.6 9-2.2 13.2c-1.2 3.2-3.2 6.1-4.2 9.4-1.8 6.2.5 13-1 19.3-1.2 5.4-4.9 9.9-5.7 15.4-1.1 7.6 3.8 15.6 1.2 22.8-1.3 3.6-4.3 6.5-5.1 10.2-.7 2.9 0 6-.6 8.9-1 4.7-9.9 8.3-14.7 7.9" fill="#e0e0e0"/><path id="Pfad_27768" d="M688.5 328.9v.4l-.2 1.2c-.2 1-.3 2.6-.7 4.5s-1.4 4.2-2.3 6.9a76.965 76.965 0 00-2.5 9.3c-.7 3.5-1.5 7.3-2.2 11.4a47.562 47.562 0 01-3.6 12.9c-1 2.2-2 4.3-2.8 6.6a30.572 30.572 0 00-1.5 7.3 139.413 139.413 0 01-2.1 15.8c-2.1 10.7-4.2 20.8-6 30.1s-3.7 17.5-5.2 24.5-2.7 12.5-3.6 16.5c-.4 1.9-.8 3.4-1 4.5a10.379 10.379 0 01-.3 1.2c0 .1-.1.3-.1.4v-.4a5.018 5.018 0 01.2-1.2q.3-1.65.9-4.5c.8-3.9 1.9-9.6 3.3-16.6l5-24.6c1.8-9.3 3.9-19.4 6-30.1a137.669 137.669 0 002.1-15.7 32.375 32.375 0 011.6-7.5 67.6 67.6 0 012.9-6.7 47.9 47.9 0 003.6-12.8c.7-4.1 1.4-8 2.2-11.5s1.7-6.6 2.6-9.3 1.9-4.9 2.4-6.8.6-3.5.8-4.5l.2-1.2c.3.1.3 0 .3-.1z" fill="#ebebeb"/><path id="Pfad_27769" d="M10.8 281s-11.6 2.4-3.4 27.5 14.5 37.9 14.5 37.9 1.2 5.7-3.4 5.8-14.5-3.1-17.4 2.2c-3 5.4.3 11.5 8 17.6s24.2 20.1 25.6 21.4 2.7 4-.5 4.6-26-.7-26 10.2 24.4 24.4 27 25.9 3.1 2.8 2.6 4.3-8.1.4-14.6.3-14.1 1-13.5 7.2 13.9 21.4 50.4 30.9l17.2 3.3L89.1 467c23.4-29.6 24.9-49.7 21.6-55s-10-1.6-15.1 2.4-10.6 9.5-11.8 8.6-1.7-2.2-.5-5 12.5-28.2 6-36.9-24 6-26.9 7.4-3.6-1.5-3.2-3.4 5.1-22.9 7.6-32.5 1.5-16.4-4.2-18.9c-5.5-2.4-11.3 6-15.1 8.7s-6.3-2.6-6.3-2.6-2.6-14.1-11.2-39S10.5 281 10.5 281" fill="#ebebeb"/><path id="Pfad_27770" d="M77.7 484.4c-6.2-18.3-16.8-51.2-26-79.3S34.1 351.6 28 333.2c-3.1-9.2-5.6-16.6-7.3-21.7-.8-2.6-1.5-4.6-2-5.9-.2-.7-.4-1.2-.5-1.5-.1-.2-.1-.4-.2-.5l.2.5.6 1.5 2.1 5.9c1.8 5.1 4.4 12.5 7.5 21.7 6.3 18.3 14.7 43.7 23.9 71.8s19.7 60.9 25.9 79.3" fill="#e0e0e0"/><path id="Pfad_27771" d="M14.6 359.4a6.117 6.117 0 011.2.5c.7.4 1.8.9 3 1.6 2.5 1.4 6 3.5 9.8 5.8l9.7 6 2.9 1.8a6.726 6.726 0 011.1.7 6.117 6.117 0 01-1.2-.5c-.7-.4-1.8-.9-3-1.7-2.5-1.4-6-3.5-9.7-5.9l-9.7-5.9-2.9-1.8a3.369 3.369 0 01-1.2-.6z" fill="#e0e0e0"/><path id="Pfad_27772" d="M43.6 375c-.1-.1 3.8-7.4 8.7-16.4s9.1-16.2 9.2-16.1-3.8 7.4-8.7 16.4-9.1 16.1-9.2 16.1z" fill="#e0e0e0"/><path id="Pfad_27773" d="M55.8 418.8a4.3 4.3 0 01.9-1l2.5-2.5c2.1-2.1 5-5 8.1-8.3s5.8-6.4 7.7-8.7c.9-1.1 1.7-2 2.3-2.7a7.636 7.636 0 01.9-.9 6.726 6.726 0 01-.7 1.1c-.5.7-1.2 1.6-2.2 2.8-1.9 2.3-4.5 5.5-7.6 8.8s-6 6.2-8.2 8.2c-1.1 1-2 1.8-2.6 2.4a4.441 4.441 0 00-1.1.8z" fill="#e0e0e0"/><path id="Pfad_27774" d="M26.4 410.4a5.019 5.019 0 011.2.2l3.2.8c2.7.7 6.3 1.6 10.4 2.7s7.7 2.1 10.3 2.9l3.1.9a3.583 3.583 0 011.1.4 5.019 5.019 0 01-1.2-.2l-3.2-.8c-2.7-.7-6.3-1.6-10.4-2.7s-7.7-2.1-10.3-2.9l-3.1-.9a2.967 2.967 0 01-1.1-.4z" fill="#e0e0e0"/><path id="Pfad_27775" d="M32.3 450.5a7.974 7.974 0 011.5.3l4.1 1c3.4.8 8.1 2 13.3 3.4s9.9 2.6 13.3 3.5l4 1.1a5.782 5.782 0 011.4.5 4.013 4.013 0 01-1.5-.3l-4.1-1c-3.4-.8-8.1-2-13.3-3.4s-9.9-2.6-13.3-3.5l-4-1.1c-.5-.2-.9-.3-1.4-.5z" fill="#e0e0e0"/><path id="Pfad_27776" d="M69.1 459.8a11.989 11.989 0 011.1-1.2l3.1-3.3c2.6-2.8 6.1-6.6 9.9-10.9s7.1-8.3 9.5-11.2l2.8-3.5a11.989 11.989 0 011.1-1.2c-.3.5-.6.9-.9 1.4-.6.8-1.5 2.1-2.7 3.6-2.3 3-5.6 7-9.4 11.4s-7.4 8.1-10 10.8c-1.3 1.3-2.4 2.4-3.2 3.1a14.687 14.687 0 01-1.3 1z" fill="#e0e0e0"/></g><g id="freepik--Floor--inject-57" transform="translate(84.606 540.197)"><path id="Pfad_27777" d="M719.8.3c0 .2-161.1.3-359.9.3S0 .5 0 .3 161.1 0 359.9 0s359.9.2 359.9.3z" fill="#263238"/></g><g id="freepik--character-3--inject-57" transform="translate(558.614 82.853)"><path id="Pfad_27778" d="M32.4 135.3l15.2 11.6 6.5 2.9-6.5-9.8-12.3-8.7a2.5 2.5 0 00-3.4.5 2.527 2.527 0 00.5 3.5z" fill="#263238"/><path id="Pfad_27779" d="M92.7 162.5c-.7 0-21.5-8.2-21.9-9.3s-.2-4.3-4.4-5.4-8.4-2.6-8.4-2.6l-10.6-7s-2.9 1-.3 4.1a37.048 37.048 0 004.9 4.8c1 .8-1 2-1 2l-14.4-10.9a14.783 14.783 0 003 7.3l2.1 2.8a5.483 5.483 0 001.6 6c3 2.8 7.7 9.8 12.8 10.1s8.6.6 8.6.6l26.2 12.8z" fill="#ffbe9d"/><path id="Pfad_27780" d="M133.9 11.9c1 5.6 8.9 7.9 9.6 13.5.3 2.4-.9 4.8-.9 7.2 0 3.2 2.3 6 3.3 9.1 2.3 6.3-.6 13.7-5.7 18s-12.1 6-18.8 6" fill="#263238"/><path id="Pfad_27781" d="M88.8 16.7c.6 3-1 5.9-2.7 8.5s-3.6 5.2-3.6 8.2c0 5.4 5.8 9.6 5.5 14.9-.2 2.9-2.2 5.4-2.2 8.3s1.8 5.3 3.9 7.1 4.2 1.2 6 3.3a21.383 21.383 0 007.8 5.2c6.2 2.4 12.5-3.2 15.2-4.4" fill="#263238"/><path id="Pfad_27782" d="M135.5 14.9c-.3-2.7-3.1-4.5-5.8-5.1s-5.5-.6-8-1.8c-2.2-1.1-3.8-3-5.7-4.5a16.973 16.973 0 00-27.1 11.6c-.4 4 .9 8.5 4.3 10.7 3.9 2.5 9.1 1.1 13.5-.4s9.4-3.2 13.6-1c2.5 1.3 4.2 3.7 5.9 6s3.8 4.5 6.6 5 6.1-1.5 5.9-4.3" fill="#263238"/><path id="Pfad_27783" d="M125 15.7l-25-2.8c-7.8.2-11.7 10.5-11.1 18.3.6 8.7 1.7 19.3 3.6 25.6 3.8 12.7 14 13 14 13s2.2 15.8 3.1 22l27.4-3.3-7.2-68.7a4.751 4.751 0 00-4.8-4.1z" fill="#ffbe9d"/><path id="Pfad_27784" d="M92.2 40.3a1.66 1.66 0 003.3-.3 1.746 1.746 0 00-1.8-1.5 1.669 1.669 0 00-1.5 1.8z" fill="#263238"/><path id="Pfad_27785" d="M91.7 37.6c.2.2 1.4-.9 3.2-1.2s3.2.5 3.4.2-.2-.5-.8-.8a4.2 4.2 0 00-2.7-.4 4.871 4.871 0 00-2.5 1.2c-.5.5-.7.9-.6 1z" fill="#263238"/><path id="Pfad_27786" d="M109.6 37.8a1.66 1.66 0 003.3-.3 1.746 1.746 0 00-1.8-1.5 1.613 1.613 0 00-1.5 1.8z" fill="#263238"/><path id="Pfad_27787" d="M109.4 35.6c.2.2 1.4-.9 3.2-1.2s3.2.5 3.4.2-.2-.5-.8-.8a4.5 4.5 0 00-5.1.8c-.7.5-.9.9-.7 1z" fill="#263238"/><path id="Pfad_27788" d="M104.7 49.7a10.073 10.073 0 00-3-.1c-.5 0-.9 0-1-.3a2.2 2.2 0 01.1-1.4l.9-3.6c1.2-5.2 2-9.4 1.8-9.5s-1.4 4.1-2.6 9.3c-.3 1.3-.6 2.5-.8 3.6a2.775 2.775 0 000 1.8 1.555 1.555 0 00.8.6h.8a15.438 15.438 0 003-.4z" fill="#263238"/><path id="Pfad_27789" d="M106.3 71a33.144 33.144 0 0016.7-7c-.1 0-3.5 9.7-16.1 10z" fill="#eb996e"/><path id="Pfad_27790" d="M106 53.9a3.152 3.152 0 012.7-1.6 3.5 3.5 0 012.2.8 1.826 1.826 0 01.4 2.1 2.251 2.251 0 01-2.3.9 5.282 5.282 0 01-2.4-1.1 2.651 2.651 0 01-.6-.5q-.15-.15 0-.6" fill="#f8b02f"/><path id="Pfad_27791" d="M110.1 50.2c-.3 0 0 2-1.5 3.6s-3.6 1.7-3.5 1.9.5.3 1.4.2a5.075 5.075 0 003-1.5 3.767 3.767 0 001.1-3c-.1-.8-.4-1.2-.5-1.2z" fill="#263238"/><path id="Pfad_27792" d="M108.1 32.5c.2.5 2 0 4.1 0s3.9.3 4.1-.2c.1-.2-.3-.6-1-1a7 7 0 00-6.3.2c-.6.4-1 .8-.9 1z" fill="#263238"/><path id="Pfad_27793" d="M91.7 32.3c.4.4 1.5-.2 3-.4s2.8-.1 3-.6c.1-.2-.1-.6-.7-.9a3.658 3.658 0 00-2.5-.3 4.637 4.637 0 00-2.3 1.2c-.5.4-.7.9-.5 1z" fill="#263238"/><path id="Pfad_27794" d="M136.3 59.5c-3.5 1.2-4-.6-7-2.7a11.655 11.655 0 01-4.9-9.4c0-3.2 1.2-6.7-.3-9.6-2-3.8-7.8-4.2-9.8-8-1.2-2.2-.8-5-2.1-7.1s-3.6-2.9-5.9-3.4-4.7-.7-6.7-1.9-3.5-3.7-2.6-5.9a119.732 119.732 0 0129.2 3c2.2.5 4.6 1.1 6 2.8s1.9 4.4 2.1 6.8l3.2 35.1" fill="#263238"/><path id="Pfad_27795" d="M140.8 32a10.011 10.011 0 0118.3-6c2.3 3.4 2.3 7.9 1.1 11.9-1.4 4.7-4.9 9.3-9.8 9.7-4.6.4-8.8-3.1-10.7-7.2s-2-8.9-2.1-13.5" fill="#263238"/><path id="Pfad_27796" d="M145.8 49.3a1.555 1.555 0 00.6-.8 6.6 6.6 0 00.6-2.7 11.409 11.409 0 00-.7-4.1c-.5-1.5-1.2-3-1.8-4.7a12.8 12.8 0 01-.9-4.8c.1-1.5.6-2.8.7-4a4.541 4.541 0 00-.3-2.8 2.134 2.134 0 00-.6-.8 3.552 3.552 0 01.4.9 4.639 4.639 0 01.1 2.6 28.318 28.318 0 00-.8 4 14.259 14.259 0 00.9 5c.6 1.7 1.4 3.2 1.8 4.6a13.554 13.554 0 01.8 3.9 8.744 8.744 0 01-.8 3.7z" fill="#455a64"/><path id="Pfad_27797" d="M143.8 33.8a6.576 6.576 0 002.3 1.7A11.54 11.54 0 00159 34a6.458 6.458 0 001.8-2.2c-.1-.1-.7.8-2.1 1.8a11.864 11.864 0 01-12.4 1.5c-1.6-.7-2.4-1.4-2.5-1.3z" fill="#455a64"/><path id="Pfad_27798" d="M144.7 35.7a5.223 5.223 0 001.4 1.9 14.008 14.008 0 004.7 3.2 12.97 12.97 0 005.5 1.2 5.833 5.833 0 002.3-.3 17.7 17.7 0 00-2.3-.1 15.842 15.842 0 01-9.9-4.2 13.649 13.649 0 00-1.7-1.7z" fill="#455a64"/><path id="Pfad_27799" d="M144 54c0-.1.1-.1.1-.2l.3-.6a6.874 6.874 0 00.5-2.4 8.3 8.3 0 00-.7-3.8 7.027 7.027 0 00-3.6-3.6c-1.7-.9-3.8-1.3-5.3-2.9a3.682 3.682 0 01-1.1-2.9 13.592 13.592 0 01.7-3.5 9.535 9.535 0 00-1.2-7.7 8.632 8.632 0 00-3.1-2.9 10.074 10.074 0 00-4.2-1.1c-1.4-.1-2.9-.1-4.2-.3a8.373 8.373 0 01-3.7-1.4 5.689 5.689 0 01-2-3.2c-.3-1.2-.7-2.4-1.1-3.6a13.218 13.218 0 00-4.3-5.6 11.275 11.275 0 00-5.9-2 8.488 8.488 0 00-4.9 1.4 7.061 7.061 0 00-2.5 2.9 6.154 6.154 0 00-.7 2.3v.8a8.507 8.507 0 01.9-3.1 8.09 8.09 0 012.5-2.7 7.79 7.79 0 014.7-1.3 9.557 9.557 0 015.6 2 11.789 11.789 0 014.1 5.5c.4 1.2.8 2.4 1.1 3.6a6.636 6.636 0 002.1 3.5 8.161 8.161 0 003.9 1.5c1.4.2 2.8.2 4.3.3a11.221 11.221 0 014 1 7.538 7.538 0 012.9 2.7 9.162 9.162 0 011.2 7.2 22.871 22.871 0 00-.7 3.6 4.6 4.6 0 001.3 3.3c1.7 1.7 3.8 2.1 5.5 2.9a7.675 7.675 0 013.5 3.4 7.577 7.577 0 01.8 3.6 15.943 15.943 0 01-.8 3.3z" fill="#455a64"/><path id="Pfad_27800" d="M138.1 18a1.268 1.268 0 00.1-.6 2.837 2.837 0 00-.7-1.7 4.689 4.689 0 00-2.4-1.5 6.665 6.665 0 00-3.7.4c-1.3.4-2.7 1.2-4.2 1.7a5.752 5.752 0 01-4.8-.1c-1.5-.9-2.4-2.6-3.4-4.3a19.753 19.753 0 00-3.7-4.9 18.437 18.437 0 00-10.6-5 9.448 9.448 0 00-5.2.9 7.607 7.607 0 00-3.4 3 6.529 6.529 0 00-1 3.6 5.029 5.029 0 00.8 2.7 3.745 3.745 0 001.2 1.3c.2.1.3.3.5.3a6.549 6.549 0 01-1.5-1.8 5.756 5.756 0 01.3-6 8.141 8.141 0 013.3-2.8 10.152 10.152 0 014.9-.8 17.362 17.362 0 0110.3 4.8 16.8 16.8 0 013.6 4.8 11.263 11.263 0 003.6 4.5 4.9 4.9 0 002.7.6 10.081 10.081 0 002.5-.5c1.5-.6 2.9-1.3 4.1-1.8a6.966 6.966 0 013.5-.5 4.1 4.1 0 012.3 1.3 2.965 2.965 0 01.7 1.5 3.235 3.235 0 01.2.9z" fill="#455a64"/><path id="Pfad_27801" d="M128.2 267.6c.6 1.8 18.2 79.1 18.2 79.1l53.7 64.7 18.9-15.9-40.2-60.7-7.7-76.6z" fill="#ffbe9d"/><path id="Pfad_27802" d="M219 395.4l.6.8 11.7 15.3 14.5 9.9-19.4 37.3H205s1.5-5.1 11.8-7.8l.7-20.5-18.5-20.1" fill="#f8b02f"/><g id="Gruppe_1293" transform="translate(205.042 419.266)" opacity=".6"><path id="Pfad_27803" d="M40.7 2.1L21.3 39.4 0 39.5l2.4-3.2 17.4-1L37.7 0z" fill="#fff"/></g><path id="Pfad_27804" d="M217 441.5c.2.2 1.4-.5 3-.4s2.9.7 3 .5-1-1.4-3-1.4-3.2 1.2-3 1.3z" fill="#263238"/><path id="Pfad_27805" d="M217.3 436.5c.2.1 1.2-1.1 2.9-1.4s3.1.4 3.2.2-.2-.5-.8-.8a4 4 0 00-4.8 1c-.5.5-.6.9-.5 1z" fill="#263238"/><path id="Pfad_27806" d="M217.2 429.9c.2.1 1-1.1 2.4-1.6s2.8 0 2.9-.3-.2-.4-.8-.6a3.313 3.313 0 00-2.4 0 3.581 3.581 0 00-1.9 1.5c-.3.6-.3 1-.2 1z" fill="#263238"/><path id="Pfad_27807" d="M211.5 424.9c.3.1.9-1.1 2.2-2a16.8 16.8 0 012.7-1.2c.1-.2-1.6-.6-3.2.5s-2 2.7-1.7 2.7z" fill="#263238"/><path id="Pfad_27808" d="M208.7 420.5c.1.1.8-.8 1.9-2.2l1.8-2.6a9.5 9.5 0 001-1.7 1.95 1.95 0 00-.1-1.3 1.457 1.457 0 00-1.3-.7 3.811 3.811 0 00-2 1 7.4 7.4 0 00-2.4 4.6 4.216 4.216 0 00.5 2.9 13.2 13.2 0 01.2-2.8 6.6 6.6 0 011.2-2.7 6.789 6.789 0 011.2-1.2 2.751 2.751 0 011.5-.8.52.52 0 01.4.2.637.637 0 010 .6 10.929 10.929 0 01-.8 1.5L210 418a7.45 7.45 0 00-1.3 2.5z" fill="#263238"/><path id="Pfad_27809" d="M207.9 421.1c.1 0 0-1.1-1.1-2.4a5.327 5.327 0 00-6.3-1.1 1.136 1.136 0 00-.3.8 1.08 1.08 0 00.3.7 2.7 2.7 0 00.8.7l1.5.9a9.006 9.006 0 002.8.8 3.872 3.872 0 002.6-.3c0-.1-1-.1-2.5-.4a10.64 10.64 0 01-2.5-.9 5.671 5.671 0 01-1.3-.8 2.652 2.652 0 01-.6-.5c-.1-.2-.1-.1 0-.2a1.421 1.421 0 01.6-.2 2.2 2.2 0 01.8-.1 7.568 7.568 0 011.5.1 4.637 4.637 0 012.3 1.2c1 .8 1.3 1.8 1.4 1.7z" fill="#263238"/><g id="Gruppe_1294" transform="translate(228.761 418.203)" opacity=".6"><path id="Pfad_27810" d="M0 2.5A2.476 2.476 0 002.5 5 2.476 2.476 0 005 2.5 2.416 2.416 0 002.5 0 2.476 2.476 0 000 2.5z" fill="#fff"/></g><path id="Pfad_27811" d="M129.1 281.3l-42 67.2s-.4 16.6-4.9 26.4-24.7 51.3-24.7 51.3l-18.4-8.4 22.7-82L93.9 253z" fill="#ffbe9d"/><path id="Pfad_27812" d="M62.1 419.3l-15 37.5-47.1-18c2-4.4 31.7-3.2 31.7-3.2l9.5-25.4z" fill="#f8b02f"/><g id="Gruppe_1295" transform="translate(42.145 437.906)" opacity=".6"><path id="Pfad_27813" d="M3 .3A2.061 2.061 0 013.5 3a2.049 2.049 0 01-2.7.6A2.307 2.307 0 01.3.7 2.147 2.147 0 013.2.5" fill="#fff"/></g><g id="Gruppe_1296" transform="translate(.048 437.152)" opacity=".6"><path id="Pfad_27814" d="M47.1 19.7l1.3-3.9L2.8 0S.4.1 0 1.7z" fill="#fff"/></g><path id="Pfad_27815" d="M30.9 435.8c-.1.2 1 .8 1.9 1.9s1.1 2.4 1.3 2.4.4-1.5-.6-2.9-2.6-1.6-2.6-1.4z" fill="#263238"/><path id="Pfad_27816" d="M23.9 435.6c-.1.2.7 1 1.1 2.2s.2 2.4.5 2.4.9-1.2.3-2.7-1.8-2.1-1.9-1.9z" fill="#263238"/><path id="Pfad_27817" d="M19 440.2c.2.1 1-.9.8-2.4s-1-2.4-1.2-2.2.2 1.1.3 2.3-.1 2.2.1 2.3z" fill="#263238"/><path id="Pfad_27818" d="M33.6 429.6c0 .2 1.2.3 2.4.9s2.1 1.4 2.3 1.2-.5-1.3-2-2-2.7-.3-2.7-.1z" fill="#263238"/><path id="Pfad_27819" d="M35 423.7a5.007 5.007 0 002.4.9 10.865 10.865 0 004.4 0 3.179 3.179 0 00.9-.3 1.02 1.02 0 00.6-1.2 1.419 1.419 0 00-.8-.9 2.92 2.92 0 00-.9-.2 4.854 4.854 0 00-1.7 0 13.1 13.1 0 00-2.7.6c-1.5.6-2.2 1.3-2.1 1.4s.9-.4 2.3-.8a10.855 10.855 0 012.5-.4 7.568 7.568 0 011.5.1c.5.1 1 .2 1 .5 0 .1 0 .1-.2.2a1.445 1.445 0 01-.7.2 7.719 7.719 0 01-1.5.2 11.3 11.3 0 01-2.6 0 9.859 9.859 0 00-2.4-.3z" fill="#263238"/><path id="Pfad_27820" d="M35.1 424.1a4.26 4.26 0 001.5-2 8.981 8.981 0 00.7-2.7 4.854 4.854 0 000-1.7 2.107 2.107 0 00-1.1-1.8 1.314 1.314 0 00-1.2.3 5.548 5.548 0 00-.6.8 4.418 4.418 0 00-.6 1.6 5.33 5.33 0 00.1 2.8c.5 1.6 1.3 2.2 1.4 2.1a15.547 15.547 0 01-.8-2.3 7.017 7.017 0 01.1-2.5 3.1 3.1 0 01.6-1.3c.3-.5.6-.8.8-.7a1.606 1.606 0 01.5 1.1 7.569 7.569 0 01.1 1.5 10.054 10.054 0 01-.4 2.5c-.6 1.5-1.2 2.2-1.1 2.3z" fill="#263238"/><path id="Pfad_27821" d="M137.1 74.3s11 7.6 16 15.9 5.9 20.7 6.3 28.5c.7 11.9-1.8 33.6 1 45.2s15.4 34.7 19.1 60.7 1.3 75.8 1.3 75.8-40.3 15.9-58.5-1.9c-21.4-20.8-45.4-13.9-45.4-13.9s21.3-56.8 25.8-69.1 3.4-55.6 3.4-55.6-16.3-21.6-11.5-33.9c4.9-12.7 15.1-39.1 15.1-39.1z" fill="#f8b02f"/><path id="Pfad_27822" d="M222 193.5l-38.8-63.2s-18.1 3.5-26.2 9.8-24.3 20.7-24.3 20.7l26.1 69.2s1.5.3 9.6-1.5 53.6-35 53.6-35z" fill="#263238"/><path id="Pfad_27823" d="M136.3 74.3l-1.6-7.2s-29.5 11.8-28.9 13.4 2.5 7.8 2.5 7.8z" fill="#f8b02f"/><path id="Pfad_27824" d="M175.3 131.8a171.629 171.629 0 00-18-33.5c-7.9-10.9-18.1-19.2-24.6-16.9 0 0 5.8 1 12.3 9.5 8.3 10.9 19.8 44.9 19.8 44.9z" fill="#263238"/><path id="Pfad_27825" d="M123.6 87.9l-9.4 68.2-40.3-4.7-3.9 17.3s60 35.1 70.1 6.3c10.6-30.1 8.6-67.1 8.6-67.1s-4.8-28.4-25.1-20z" fill="#f8b02f"/><path id="Pfad_27826" d="M96.7 181.4a.367.367 0 01.3.1l.8.3 3.2 1.1a97.574 97.574 0 0011.8 3.1 39.613 39.613 0 008.4.6 24.734 24.734 0 009.3-2.1 19.36 19.36 0 008.2-6.5 31.078 31.078 0 004.3-10.5 358.908 358.908 0 005.3-40c.4-5.2.6-9.3.8-12.2.1-1.4.1-2.5.2-3.3v3.2c-.1 2.9-.2 7.1-.6 12.2a335.473 335.473 0 01-5.1 40.1 27.921 27.921 0 01-4.4 10.7 19.329 19.329 0 01-8.5 6.7 26.2 26.2 0 01-9.5 2.1 40.659 40.659 0 01-8.5-.7 79.338 79.338 0 01-11.8-3.3c-1.4-.5-2.4-.9-3.1-1.2l-.8-.3a.774.774 0 00-.3-.1z" fill="#263238"/><path id="Pfad_27827" d="M120.4 110.7a2.769 2.769 0 01-.1.9c-.1.6-.2 1.5-.3 2.5-.3 2.2-.7 5.4-1.2 9.2-1.1 7.8-2.5 18.5-4.1 30.3a18.663 18.663 0 01-.4 2.5v.3h-.3L85.5 153l-8.6-1.1-2.3-.3a2.354 2.354 0 01-.8-.2h.8l2.3.2 8.6.9 28.6 3.2-.3.3c.1-.8.2-1.7.3-2.5 1.7-11.8 3.2-22.4 4.3-30.2.6-3.8 1-6.9 1.4-9.2.2-1 .3-1.8.4-2.5.1-.3.1-.6.2-.9z" fill="#263238"/><path id="Pfad_27828" d="M113.6 155.6c0-.1.6 0 1.4.5a7.879 7.879 0 014 5.7 3.788 3.788 0 010 1.5 15.655 15.655 0 00-1.8-4.4 11.287 11.287 0 00-3.6-3.3z" fill="#263238"/><path id="Pfad_27829" d="M119.2 100.2a2.054 2.054 0 010-1.1 25.3 25.3 0 01.5-2.9 23.286 23.286 0 013.4-9.2 12.162 12.162 0 018-5.4 7.575 7.575 0 013 0 3 3 0 011 .4 12.75 12.75 0 00-3.9 0 13.019 13.019 0 00-7.6 5.4 25.491 25.491 0 00-3.5 8.9 35.581 35.581 0 01-.9 3.9z" fill="#263238"/><path id="Pfad_27830" d="M123.7 86.1c-2 1.8-6.5 10.5-7.5 19.8-.8 7.1.7 14.3 1.9 21.4.2-3.5 1.8-13.3 1.8-13.3s-.4-4.8-.3-9.3a35.8 35.8 0 011.3-8.6z" fill="#263238"/><path id="Pfad_27831" d="M149 117.4a11.065 11.065 0 011.2-2.7 13.5 13.5 0 011.5-2.6 6.154 6.154 0 01-.9 2.9c-.8 1.4-1.6 2.5-1.8 2.4z" fill="#263238"/><path id="Pfad_27832" d="M108.4 87.3a8.3 8.3 0 004.4-.6c2.6-.9 5.5-3.6 9.1-6a91.468 91.468 0 019.6-5.5c1.3-.6 2.3-1.1 3-1.4a5.638 5.638 0 011.2-.4c0 .1-1.5.8-4 2.2s-5.8 3.2-9.4 5.6c-1.8 1.2-3.4 2.4-4.9 3.5a17.013 17.013 0 01-4.4 2.4 7.512 7.512 0 01-3.3.4 1.907 1.907 0 01-1.3-.2z" fill="#263238"/><path id="Pfad_27833" d="M124.1 293.3a46.382 46.382 0 004.5-7 10.838 10.838 0 00.8-1.9c.3-.7.5-1.3.8-2 .4-1.5 1-3 1.3-4.7a67.84 67.84 0 001.6-11 123.969 123.969 0 00-.5-20.2c-.3-2.6-.6-4.6-.8-6a12.764 12.764 0 01-.2-1.7v-.6c.1.2.1.4.2.6.1.4.2 1 .3 1.6.3 1.4.6 3.5 1 6a105.816 105.816 0 01.7 20.3 67.838 67.838 0 01-1.6 11 32.258 32.258 0 01-1.4 4.7 18.027 18.027 0 00-.8 2.1 15.384 15.384 0 01-.8 1.9 19.235 19.235 0 01-1.8 3.1 11.6 11.6 0 01-1.6 2.1l-1.1 1.2a1.333 1.333 0 01-.6.5z" fill="#263238"/></g><g id="freepik--Device--inject-57" transform="translate(297.033 27.35)"><path id="Pfad_27834" d="M212 513.5l-174.2-.8A37.962 37.962 0 010 474.6L1.8 37.8A37.984 37.984 0 0140 0l174.2.8A37.962 37.962 0 01252 38.9l-1.8 436.8a38.177 38.177 0 01-38.2 37.8z" fill="#263238"/><path id="Pfad_27835" d="M213.8 15.7l-33.8-.2a8.366 8.366 0 00-8.2 8.5v6.1a8.432 8.432 0 01-8.2 8.5l-65.8-.3a8.453 8.453 0 01-8.2-8.6v-6a8.387 8.387 0 00-8.2-8.6H69.5L40 14.9a26.568 26.568 0 00-26.7 26.4l-1.8 426.3a26.568 26.568 0 0026.4 26.7l173.9.8a26.567 26.567 0 0026.7-26.4l1.8-426.3a26.461 26.461 0 00-26.5-26.7z" fill="#fff"/><path id="Pfad_27836" d="M221.7 68.6a1.2 1.2 0 11-1.2-1.2 1.216 1.216 0 011.2 1.2z" fill="#263238"/><path id="Pfad_27837" d="M221.7 73.1a1.2 1.2 0 11-1.2-1.2 1.216 1.216 0 011.2 1.2z" fill="#263238"/><path id="Pfad_27838" d="M221.7 77.6a1.216 1.216 0 01-1.2 1.2 1.2 1.2 0 010-2.4 1.153 1.153 0 011.2 1.2z" fill="#263238"/><path id="Pfad_27839" d="M107 264.7h70.3a20.87 20.87 0 0120.8 20.9v3.5a20.891 20.891 0 01-20.9 20.9H86.1v-24.4a20.955 20.955 0 0120.9-20.9z" fill="#ebebeb"/><path id="Pfad_27840" d="M205.9 476.1H48.1a19.248 19.248 0 01-19.3-19.3v-.8a19.248 19.248 0 0119.3-19.3h157.8a19.248 19.248 0 0119.3 19.3v.8a19.312 19.312 0 01-19.3 19.3zM48.1 437.9A18.1 18.1 0 0030 456v.8a18.1 18.1 0 0018.1 18.1h157.8a18.1 18.1 0 0018.1-18.1v-.8a18.1 18.1 0 00-18.1-18.1z" fill="#f8b02f"/><circle id="Ellipse_189" cx="9.8" cy="9.8" r="9.8" transform="translate(197 446)" fill="#f8b02f"/><path id="Pfad_27841" d="M206.6 461.9c-.1 0-.2-.1-.3-.2l-1.2-4.6-4.3-1.5c-.1 0-.2-.2-.2-.3s.1-.2.2-.3l10.2-3.6a.367.367 0 01.3.1.187.187 0 010 .3l-4.4 10c-.1 0-.2.1-.3.1zm-4.9-6.7l3.7 1.3a.215.215 0 01.2.2l1.1 4 3.8-8.6z" fill="#fff"/><g id="Gruppe_1297" transform="translate(31.491 265.172)"><path id="Rechteck_503" fill="#f8b02f" d="M0 0h44.2v44.2H0z"/><path id="Pfad_27842" d="M21.9 36.8a13.431 13.431 0 01-9-1.6 7.98 7.98 0 01-3.8-8c.3-1.5 1.2-2.9 1-4.4-.1-1.1-.9-2.1-.9-3.3 0-2.6 3.5-4.2 3.6-6.8" fill="#263238"/><path id="Pfad_27843" d="M23.3 37.6c1.3.4 4.6 2.5 7.3 1.1a10.178 10.178 0 003.3-2.9c.8-1.1 1.8-.9 2.6-1.9a5 5 0 001.4-3.5c-.2-1.3-1.3-2.4-1.5-3.7-.5-2.4 1.9-4.8 1.6-7.2a7.514 7.514 0 00-2.2-3.6 5.454 5.454 0 01-1.8-3.7" fill="#263238"/><path id="Pfad_27844" d="M12 21.8c0 1.3 1.8 2.1 3 1.6a5.458 5.458 0 002.7-2.7 9.233 9.233 0 012.4-3.1c1.8-1.3 4.2-.8 6.3-.4s4.6.7 6.3-.7a5.082 5.082 0 001.3-5.2 7.964 7.964 0 00-9.6-5.8 8.523 8.523 0 00-3.7 2.1 13.63 13.63 0 01-2.4 2.4 26.71 26.71 0 01-3.6 1.4 3.081 3.081 0 00-2.3 2.7" fill="#263238"/><path id="Pfad_27845" d="M15.5 16.7l1 27.6 12.8-.3v-5.8s4.7-.8 5.6-6.9a61.154 61.154 0 000-12.1c-.3-3.6-2.7-8.1-6.3-7.7l-11.4 2.9a2.186 2.186 0 00-1.7 2.3z" fill="#b78876"/><path id="Pfad_27846" d="M33 22.8a.773.773 0 00-.8-.7.773.773 0 00-.7.8.773.773 0 00.8.7.773.773 0 00.7-.8z" fill="#263238"/><path id="Pfad_27847" d="M33.5 21.5a2.107 2.107 0 00-2.4 0c-.3.2-.4.3-.3.4s.7-.3 1.5-.3 1.4.4 1.5.3c.1 0 0-.2-.3-.4z" fill="#263238"/><path id="Pfad_27848" d="M24.1 22.3a.709.709 0 00-.7.8.773.773 0 00.8.7.86.86 0 00.8-.8 1.068 1.068 0 00-.9-.7z" fill="#263238"/><path id="Pfad_27849" d="M25.3 21.7a2 2 0 00-2.4 0c-.3.2-.4.3-.3.4s.7-.3 1.5-.3 1.4.4 1.5.3 0-.3-.3-.4z" fill="#263238"/><path id="Pfad_27850" d="M30.1 28.2h.4a1.38 1.38 0 00.4-.3 1.063 1.063 0 00-.1-.8l-.6-1.6a29.968 29.968 0 00-1.8-4.1 30.867 30.867 0 001.4 4.3c.2.6.4 1.1.6 1.6a.661.661 0 01.1.6c0 .1-.2.2-.5.2a6.753 6.753 0 00-1.4.2 6.622 6.622 0 001.5-.1z" fill="#263238"/><path id="Pfad_27851" d="M29.2 39.7a8.074 8.074 0 01-8.1-3.6 14.791 14.791 0 008.2 2.1z" fill="#aa6550"/><path id="Pfad_27852" d="M28.4 30.4a.187.187 0 010 .3c-.1.1-.1.2-.2.3a2.384 2.384 0 01-1.1.6 1.128 1.128 0 01-1.1-.3.769.769 0 01.1-1 1.231 1.231 0 011-.5 1.338 1.338 0 011.3.6" fill="#aa6550"/><path id="Pfad_27853" d="M26.1 29.5a2.091 2.091 0 00.7 1.3 2.456 2.456 0 001.5.5c.4 0 .6 0 .6-.2s-1 0-1.8-.7a3.591 3.591 0 01-.9-1.5c-.1 0-.2.2-.1.6z" fill="#263238"/><path id="Pfad_27854" d="M25.5 20.2A2.622 2.622 0 0024 20a3.36 3.36 0 00-1.4.5c-.3.2-.5.3-.4.5s.9-.1 1.9-.2 1.8 0 1.9-.2c0-.1-.2-.3-.5-.4z" fill="#263238"/><path id="Pfad_27855" d="M33.4 19a2.1 2.1 0 00-1.1-.4 2.375 2.375 0 00-1.2.3c-.3.2-.4.3-.3.5s.7.1 1.4.1 1.3.2 1.4 0a.646.646 0 00-.2-.5z" fill="#263238"/><path id="Pfad_27856" d="M14.2 34.9c-.2-5.5-.5-10.9-.8-16.4a5.384 5.384 0 01.5-3.3 5.63 5.63 0 012.6-1.7 54.946 54.946 0 0113.3-3.2 2.513 2.513 0 01-.8 2.9 10.108 10.108 0 01-3 1.3 4.064 4.064 0 00-2.5 1.9c-.5 1.1-.1 2.3-.5 3.4-.7 1.9-3.3 2.5-4 4.3-.5 1.4.3 2.9.5 4.4a5.369 5.369 0 01-1.7 4.6c-1.3 1.2-1.4 2-3.1 1.7" fill="#263238"/><path id="Pfad_27857" d="M20.7 30.8a15.427 15.427 0 01-.4 6.4 5.369 5.369 0 01-4.7 3.8c-2.3 0-4.1-2-5-4.1a6.833 6.833 0 010-5.6 4.531 4.531 0 016.3-1.8 4.7 4.7 0 012.4 3.8" fill="#263238"/><path id="Pfad_27858" d="M9.1 29.2a5.462 5.462 0 01.1-1.8c.1-.7.4-1.4.6-2.3a6.473 6.473 0 00.1-2.4c-.2-.7-.5-1.3-.6-1.8a2.462 2.462 0 01-.1-1.2c0-.1.1-.3.1-.4a.758.758 0 00-.2.4 2.854 2.854 0 000 1.3c.1.6.5 1.1.6 1.8a5.451 5.451 0 01-.1 2.2c-.2.8-.4 1.6-.5 2.3a6.054 6.054 0 000 1.9 1.383 1.383 0 00.3 1.2c.1.1.2.3.3.4a5.228 5.228 0 01-.6-1.6z" fill="#455a64"/><path id="Pfad_27859" d="M17.1 35a5.511 5.511 0 01-5.8-.2 3.915 3.915 0 01-1-.8 1.962 1.962 0 00.9.9 5.389 5.389 0 003 1 6.109 6.109 0 003-.8 2.836 2.836 0 001-.9c-.1 0-.4.4-1.1.8z" fill="#455a64"/><path id="Pfad_27860" d="M17.1 36a7.831 7.831 0 01-2 1.6 7.322 7.322 0 01-2.5.8 3.75 3.75 0 01-1.1.1 2.054 2.054 0 001.1 0 5.659 5.659 0 002.5-.8 5.51 5.51 0 002-1.7 4.053 4.053 0 00.5-.9c0 .4-.3.6-.5.9z" fill="#455a64"/><path id="Pfad_27861" d="M10.3 31.4a4.735 4.735 0 01.1-1.7 3.1 3.1 0 011.4-1.8 7.639 7.639 0 002.3-1.7 2.276 2.276 0 00.4-1.6A7.494 7.494 0 0014 23a4.034 4.034 0 01.1-3.4 3.142 3.142 0 011.1-1.4 3.594 3.594 0 011.8-.7c.6-.2 1.3-.2 1.9-.4a4.248 4.248 0 001.7-1 3.805 3.805 0 00.8-1.7 11.271 11.271 0 01.3-1.8 6.056 6.056 0 011.6-2.8 4.572 4.572 0 012.4-1.2 4.454 4.454 0 012.3.3 3.881 3.881 0 012 2.5V11a3.128 3.128 0 00-.5-1 3.592 3.592 0 00-3.7-1.5 4.953 4.953 0 00-2.6 1.3 5.581 5.581 0 00-1.6 2.9l-.3 1.8a2.36 2.36 0 01-.7 1.6 5.071 5.071 0 01-1.6.9 12.86 12.86 0 01-1.9.4 4.552 4.552 0 00-1.9.8 4.428 4.428 0 00-1.2 1.5 4.512 4.512 0 00-.1 3.6 7.494 7.494 0 01.5 1.6 1.735 1.735 0 01-.3 1.4 7.639 7.639 0 01-2.3 1.7 3.022 3.022 0 00-1.4 1.9 1.527 1.527 0 00-.1 1.5 2.016 2.016 0 00.3 1.1l.2.2.1.1a3.506 3.506 0 01-.6-1.4z" fill="#455a64"/><path id="Pfad_27862" d="M11.2 15.5a1.445 1.445 0 01.2-.7 1.834 1.834 0 011-.7 2.479 2.479 0 011.7 0c.6.1 1.3.4 2 .6a4.869 4.869 0 001.2.1 1.845 1.845 0 001.2-.5 4.948 4.948 0 001.4-2.3 7.217 7.217 0 011.4-2.4 7.08 7.08 0 014.4-3 4.479 4.479 0 012.3 0 3.858 3.858 0 011.7 1.1 2.622 2.622 0 01.5 2.8 2.361 2.361 0 01-.6.9s.1 0 .2-.2a1.794 1.794 0 00.5-.7 2.792 2.792 0 00-.5-2.9A4.185 4.185 0 0028 6.5a6.473 6.473 0 00-2.4-.1 8.281 8.281 0 00-4.6 3 8.867 8.867 0 00-1.4 2.5 4.962 4.962 0 01-1.3 2.2 2.854 2.854 0 01-2.2.4c-.7-.1-1.4-.4-2-.5a3.219 3.219 0 00-1.7.1 2.723 2.723 0 00-1 .8.445.445 0 00-.2.6.367.367 0 00.1.3.367.367 0 01-.1-.3z" fill="#455a64"/></g><path id="Pfad_27863" d="M205.3 457.1c-.1 0-.2 0-.2-.1a.3.3 0 010-.4l5.7-5.3a.283.283 0 01.4.4l-5.8 5.3z" fill="#fff"/><g id="Gruppe_1299" transform="translate(182.921 207.959)"><path id="Rechteck_504" fill="#f8b02f" d="M0 0h44.2v44.2H0z"/><g id="Gruppe_1298" opacity=".7"><path id="Rechteck_505" fill="#fff" d="M0 0h44.2v44.2H0z"/></g><path id="Pfad_27864" d="M31.7 15.4a19.657 19.657 0 00-19.8-2.5s-1 13-.9 18.7 5.7 6.5 5.7 6.5v6.1h13.8l2-28.2z" fill="#b78876"/><path id="Pfad_27865" d="M16.7 38a13.819 13.819 0 007.4-2.1s-1.8 4.1-7.4 3.6z" fill="#aa6550"/><path id="Pfad_27866" d="M31.8 21.9c.1 0 3.9-1.2 3.8 2.7s-4 2.9-4 2.8.2-5.5.2-5.5z" fill="#b78876"/><path id="Pfad_27867" d="M32.8 26c.1 0 .1 0 .2.1a.454.454 0 00.5 0 1.763 1.763 0 00.8-1.5 1.8 1.8 0 00-.2-1c-.1-.3-.3-.5-.5-.5-.2-.1-.3 0-.4.2-.1.1 0 .2-.1.2s-.1-.1 0-.2a.215.215 0 01.2-.2c.1-.1.2-.1.4-.1a1.057 1.057 0 01.7.6 1.978 1.978 0 01.2 1.1 1.676 1.676 0 01-1 1.6 1.268 1.268 0 01-.6-.1c-.2-.1-.2-.2-.2-.2z" fill="#aa6550"/><path id="Pfad_27868" d="M13.8 21.6a.789.789 0 00.8.8.773.773 0 00.8-.7.789.789 0 00-.8-.8.66.66 0 00-.8.7z" fill="#263238"/><path id="Pfad_27869" d="M13 20.8c.1.1.7-.4 1.6-.3s1.5.4 1.6.3 0-.2-.3-.4a2.2 2.2 0 00-1.3-.4 2.01 2.01 0 00-1.3.4c-.3.2-.4.4-.3.4z" fill="#263238"/><path id="Pfad_27870" d="M22.3 21.9a.789.789 0 00.8.8.773.773 0 00.8-.7.789.789 0 00-.8-.8.849.849 0 00-.8.7z" fill="#263238"/><path id="Pfad_27871" d="M21.5 21c.1.1.7-.4 1.6-.4s1.5.4 1.6.3-.1-.2-.3-.4a2.269 2.269 0 00-2.5 0 1.076 1.076 0 00-.4.5z" fill="#263238"/><path id="Pfad_27872" d="M18.4 27.5c-.5-.1-.9-.2-1.4-.3a.764.764 0 01-.5-.2.952.952 0 01.2-.7l.7-1.7a32.551 32.551 0 001.5-4.4 32.508 32.508 0 00-1.8 4.3c-.2.6-.4 1.2-.6 1.7a1.412 1.412 0 00-.1.9c.1.2.2.3.4.3h.4a3.778 3.778 0 001.2.1z" fill="#263238"/><path id="Pfad_27873" d="M21.3 17.6c.1.2 1 .1 2 .3s1.8.4 2 .2-.1-.3-.4-.6a2.456 2.456 0 00-1.5-.5 3.812 3.812 0 00-1.5.1c-.4.2-.6.4-.6.5z" fill="#263238"/><path id="Pfad_27874" d="M13.3 18.3c.2.2.7 0 1.5 0s1.3.1 1.5-.1 0-.3-.3-.5a2.663 2.663 0 00-1.2-.3 1.746 1.746 0 00-1.2.4c-.3.2-.4.4-.3.5z" fill="#263238"/><path id="Pfad_27875" d="M9.2 9.3a2.28 2.28 0 01.7-1.9 1.5 1.5 0 011.9.1 1.8 1.8 0 011.3-2.1h.2a8.948 8.948 0 012.6.9 3.872 3.872 0 002.6-.3c.8-.3 1.6-.8 2.5-1.1a7.258 7.258 0 019.3 4.3 3.187 3.187 0 013.4 1.3 5.354 5.354 0 01.8 3.7 7.172 7.172 0 01-.7 2.5v.2c0 3.1-.4 6.8-1.7 6.8-2.3 0-1.8-4.3-1.8-4.3-2.8-1.1-1.8-5.4-2.5-6s-2.2-2.1-8.1.9a11.531 11.531 0 01-7.1.8h-.2a4.128 4.128 0 01-1.5-.7A2.758 2.758 0 019.7 13a1.7 1.7 0 01.3-1.8 4.065 4.065 0 01-.8-1.9z" fill="#263238"/><path id="Pfad_27876" d="M17.6 30.1a4.671 4.671 0 00.5 1 1.193 1.193 0 00.9.5 1.231 1.231 0 001-.5 2.016 2.016 0 00.3-1.1c0-.4-.2-.8-.5-.8-.2 0-.3 0-.4.1l-1.9.7" fill="#aa6550"/><path id="Pfad_27877" d="M18.4 31.7a3.4 3.4 0 001-.1 1.478 1.478 0 00.8-1.9v-.1c0-.1-.1-.2-.2-.3s-.1-.1-.1 0c-.1 0-.2.1-.3.1l-.3.1-1.1.5a1.929 1.929 0 01-1 .3 4.053 4.053 0 01.9-.5l1-.5.3-.1a.367.367 0 01.3-.1h.3a.215.215 0 01.2.2.52.52 0 01.2.4 1.95 1.95 0 010 1.5 1.649 1.649 0 01-1 .8 1.1 1.1 0 01-.8 0 1.238 1.238 0 00-.2-.3z" fill="#263238"/><path id="Pfad_27878" d="M28.1 12.9v-.7a2.6 2.6 0 00-.9-1.6 3.293 3.293 0 00-2.5-.8 12.13 12.13 0 00-3.3.7 15.426 15.426 0 01-1.7.5 8.807 8.807 0 01-1.7.2 9.034 9.034 0 01-2.8-.4 8.651 8.651 0 01-1.7-.7 2.186 2.186 0 01-.5-.3l-.1-.1.6.3a9.625 9.625 0 001.8.7 8.611 8.611 0 002.8.3 8.752 8.752 0 001.6-.2 10.926 10.926 0 001.7-.5 9.828 9.828 0 013.4-.7 3.916 3.916 0 012.6.9 2.588 2.588 0 01.9 1.7 1.854 1.854 0 00-.2.7z" fill="#455a64"/><path id="Pfad_27879" d="M32.5 22.5l-.1-.1-.2-.4a7.366 7.366 0 01-.4-1.4 5.451 5.451 0 01-.1-2.2 19.969 19.969 0 01.5-2.6 5.708 5.708 0 000-2.6 3.128 3.128 0 00-.5-1 2.177 2.177 0 00-.8-.5 1.708 1.708 0 00-1.4 0 1.38 1.38 0 00-.4.3.781.781 0 01.4-.4 1.962 1.962 0 011.5-.1 4.053 4.053 0 01.9.5 2.664 2.664 0 01.6 1 6.15 6.15 0 010 2.7 23.812 23.812 0 00-.5 2.6 7.412 7.412 0 00.1 2.1 5.732 5.732 0 00.4 1.4 1.2 1.2 0 000 .7z" fill="#455a64"/><path id="Pfad_27880" d="M28.6 12.4v-.9a9.863 9.863 0 00-.3-2.4 3.924 3.924 0 00-.8-1.4 3.072 3.072 0 00-1.5-1 3.378 3.378 0 00-2 .1 7.218 7.218 0 00-2 .9 12.445 12.445 0 01-2 1 5.222 5.222 0 01-2.1.4 12.252 12.252 0 01-1.9-.2 9.385 9.385 0 01-1.5-.6 5.48 5.48 0 01-1.8-1.6c-.1-.2-.3-.3-.4-.5l-.1-.2c.1.1.1.1.1.2.1.1.2.3.4.5a6.549 6.549 0 001.8 1.5 4.714 4.714 0 001.5.6 5.845 5.845 0 001.9.2 6.465 6.465 0 002-.4 18.647 18.647 0 002-1 6.667 6.667 0 012.1-.9 4.973 4.973 0 012.1-.1 2.919 2.919 0 011.6 1.1 3.606 3.606 0 01.8 1.5 6.522 6.522 0 01.2 2.4v.7z" fill="#455a64"/></g><path id="Pfad_27881" d="M101.8 322.2h80.8c8.7 0 15.7 6.3 15.7 14.1V353c0 7.8-7 14.1-15.6 14.1H86.1v-30.9c0-7.7 7-14 15.7-14z" fill="#ebebeb"/><g id="Gruppe_1300" transform="translate(182.921 379.745)"><path id="Rechteck_506" fill="#f8b02f" d="M0 0h44.2v44.2H0z"/><path id="Pfad_27882" d="M31.4 12.7c.1 2.6 3.6 4.2 3.6 6.8 0 1.1-.7 2.1-.9 3.3-.2 1.5.7 2.9 1 4.4a7.893 7.893 0 01-3.8 8 13.431 13.431 0 01-9 1.6" fill="#263238"/><path id="Pfad_27883" d="M10.3 12.1a5.257 5.257 0 01-1.8 3.7 7.075 7.075 0 00-2.2 3.6c-.4 2.5 2.1 4.8 1.6 7.2-.3 1.3-1.3 2.4-1.5 3.7a4.268 4.268 0 001.4 3.5c.9 1 1.8.8 2.6 1.9a10.178 10.178 0 003.3 2.9c2.7 1.5 6-.7 7.3-1.1" fill="#263238"/><path id="Pfad_27884" d="M32 14.2a3.238 3.238 0 00-2.3-2.7 14.188 14.188 0 01-3.6-1.4 13.629 13.629 0 01-2.4-2.4 7.905 7.905 0 00-11.2-.1 7.635 7.635 0 00-2.1 3.7 5.082 5.082 0 001.3 5.2c1.7 1.4 4.1 1.1 6.3.7s4.6-.9 6.3.4a10.342 10.342 0 012.4 3.1 5.458 5.458 0 002.7 2.7c1.2.4 2.9-.3 3-1.6" fill="#263238"/><path id="Pfad_27885" d="M26.9 14.5l-11.4-2.9c-3.6-.4-6 4.1-6.3 7.7a61.154 61.154 0 000 12.1c1 6 5.6 6.9 5.6 6.9V44l12.8.2 1-27.6a1.838 1.838 0 00-1.7-2.1z" fill="#ffbe9d"/><path id="Pfad_27886" d="M11.2 22.8a.752.752 0 101.5.1.752.752 0 10-1.5-.1z" fill="#263238"/><path id="Pfad_27887" d="M10.3 21.9c.1.1.7-.3 1.5-.3a11.212 11.212 0 011.5.3c0-.1 0-.2-.3-.4a2.107 2.107 0 00-2.4 0 1.727 1.727 0 00-.3.4z" fill="#263238"/><path id="Pfad_27888" d="M19.4 23a.789.789 0 00.8.8.773.773 0 00.8-.7.773.773 0 00-.7-.8.808.808 0 00-.9.7z" fill="#263238"/><path id="Pfad_27889" d="M18.6 22.1c.1.1.7-.3 1.5-.3s1.4.4 1.5.3 0-.2-.3-.4a2.843 2.843 0 00-1.2-.4 1.746 1.746 0 00-1.2.4.373.373 0 00-.3.4z" fill="#263238"/><path id="Pfad_27890" d="M15.5 28.3a5.9 5.9 0 00-1.4-.2.764.764 0 01-.5-.2 1.268 1.268 0 01.1-.6c.2-.5.4-1.1.6-1.6a21.616 21.616 0 001.4-4.3 29.968 29.968 0 00-1.8 4.1l-.6 1.6a1.185 1.185 0 00-.1.8c.1.1.2.3.4.3h.4a8.084 8.084 0 001.5.1z" fill="#263238"/><path id="Pfad_27891" d="M14.9 38.3a15.676 15.676 0 008.2-2.1 8.074 8.074 0 01-8.1 3.6z" fill="#eb996e"/><path id="Pfad_27892" d="M15.9 30.3a1.678 1.678 0 011.4-.6 1.389 1.389 0 011 .5.92.92 0 01.1 1 1.128 1.128 0 01-1.1.3 3.881 3.881 0 01-1.1-.6c-.1-.1-.2-.2-.2-.3-.2 0-.2-.2-.1-.3" fill="#f8b02f"/><path id="Pfad_27893" d="M18 28.9a3.079 3.079 0 01-.9 1.5c-.8.6-1.8.5-1.8.7s.2.2.6.2a2.7 2.7 0 001.5-.5 2.091 2.091 0 00.7-1.3c.1-.4 0-.6-.1-.6z" fill="#263238"/><path id="Pfad_27894" d="M18.2 20.6c.1.2.9.1 1.9.2s1.8.4 1.9.2-.1-.3-.4-.5a3.36 3.36 0 00-1.4-.5 2.622 2.622 0 00-1.5.2c-.3.1-.5.3-.5.4z" fill="#263238"/><path id="Pfad_27895" d="M10.7 19.5c.1.2.7 0 1.4 0s1.3.1 1.4-.1 0-.3-.3-.5a2.663 2.663 0 00-1.2-.3 1.5 1.5 0 00-1.1.4c-.2.2-.3.4-.2.5z" fill="#263238"/><path id="Pfad_27896" d="M29.5 34.8c-1.7.3-1.8-.5-3.1-1.7a5.369 5.369 0 01-1.7-4.6c.2-1.5 1-3 .5-4.4-.7-1.9-3.3-2.4-4-4.3-.4-1.1 0-2.4-.5-3.4a3.474 3.474 0 00-2.5-1.9 10.108 10.108 0 01-3-1.3 2.312 2.312 0 01-.8-2.9 56.088 56.088 0 0113.3 3.2 5.63 5.63 0 012.6 1.7 5.276 5.276 0 01.5 3.3c-.3 5.5-.5 10.9-.8 16.4" fill="#263238"/><path id="Pfad_27897" d="M33.3 22.4a4.7 4.7 0 015.1-4.2 4.608 4.608 0 013.7 2.6 7.263 7.263 0 01-.2 5.6c-.9 2.1-2.9 4-5.1 3.9a5.346 5.346 0 01-4.5-4 15.345 15.345 0 01-.1-6.4" fill="#263238"/><path id="Pfad_27898" d="M34.5 30.8a1.38 1.38 0 00.3-.4 2.843 2.843 0 00.4-1.2 6.054 6.054 0 000-1.9c-.1-.7-.4-1.5-.5-2.3a5.45 5.45 0 01-.1-2.2 9.5 9.5 0 01.6-1.8 2.854 2.854 0 000-1.3.52.52 0 00-.2-.4.6.6 0 01.1.4 2.462 2.462 0 01-.1 1.2 18.879 18.879 0 00-.6 1.8 6.473 6.473 0 00.1 2.4c.2.8.4 1.6.6 2.3a5.462 5.462 0 01.1 1.8 5.576 5.576 0 01-.7 1.6z" fill="#455a64"/><path id="Pfad_27899" d="M34.6 23.5a2.581 2.581 0 00.9.9 5.389 5.389 0 003 1 5.291 5.291 0 003-.9 2.836 2.836 0 001-.9 4.129 4.129 0 01-1.1.7 5.512 5.512 0 01-5.8-.1c-.6-.4-1-.8-1-.7z" fill="#455a64"/><path id="Pfad_27900" d="M34.9 24.4a3.128 3.128 0 00.5 1 8.129 8.129 0 001.9 1.8 5.813 5.813 0 002.5.9 2.054 2.054 0 001.1 0 4.253 4.253 0 01-1.1-.2 9.889 9.889 0 01-2.4-.9 6.136 6.136 0 01-1.9-1.7 2.361 2.361 0 00-.6-.9z" fill="#455a64"/><path id="Pfad_27901" d="M33.4 32.8c.1-.1.2-.2.2-.3a3.582 3.582 0 00.4-1.1 3.673 3.673 0 00-.1-1.8 3.022 3.022 0 00-1.4-1.9 9.118 9.118 0 01-2.3-1.7 1.735 1.735 0 01-.3-1.4 9.829 9.829 0 01.5-1.6 4.128 4.128 0 00-.1-3.6 4.428 4.428 0 00-1.2-1.5 6.391 6.391 0 00-1.9-.8 10.622 10.622 0 01-1.9-.4 4.172 4.172 0 01-1.6-.9 2.36 2.36 0 01-.7-1.6l-.3-1.8a6.384 6.384 0 00-1.6-2.9 4.953 4.953 0 00-2.6-1.3 3.592 3.592 0 00-3.7 1.5 4.671 4.671 0 00-.5 1v.4a3.606 3.606 0 012-2.5 4.454 4.454 0 012.3-.3A5.849 5.849 0 0121 9.7a6.056 6.056 0 011.6 2.8l.3 1.8a2.289 2.289 0 00.8 1.7 4.248 4.248 0 001.7 1 12.86 12.86 0 001.9.4 6.7 6.7 0 011.8.7 3.6 3.6 0 011.1 1.4 4.456 4.456 0 01.1 3.4 9.829 9.829 0 00-.5 1.6 1.875 1.875 0 00.4 1.6 7.639 7.639 0 002.3 1.7 2.827 2.827 0 011.4 1.8 3.339 3.339 0 01.1 1.7 11.64 11.64 0 01-.6 1.5z" fill="#455a64"/><path id="Pfad_27902" d="M33 15.8c0-.1.1-.2.1-.3a1.077 1.077 0 00-.2-.8 1.589 1.589 0 00-1-.8 3.339 3.339 0 00-1.7-.1c-.6.1-1.3.4-2 .5a2.491 2.491 0 01-2.2-.4 4.962 4.962 0 01-1.3-2.2 7.68 7.68 0 00-1.4-2.5 8.845 8.845 0 00-4.6-3 3.944 3.944 0 00-2.4.1 4.185 4.185 0 00-1.8 1.1 2.792 2.792 0 00-.5 2.9 1.794 1.794 0 00.5.7l.2.2-.6-.9a3.153 3.153 0 01.5-2.8 3.858 3.858 0 011.7-1.1 4.479 4.479 0 012.3 0A9.133 9.133 0 0123 9.5a9.456 9.456 0 011.4 2.4 4.254 4.254 0 001.4 2.3 3.08 3.08 0 001.2.5 4.869 4.869 0 001.2-.1c.8-.2 1.4-.4 2-.6a2.479 2.479 0 011.7 0 2.286 2.286 0 011 .7.952.952 0 01.2.7.756.756 0 00-.1.4z" fill="#455a64"/></g><path id="Pfad_27903" d="M171.7 252.5H85.1A14.084 14.084 0 0171 238.4v-16.7a14.084 14.084 0 0114.1-14.1h72.6a14.084 14.084 0 0114.1 14.1v30.8z" fill="#ebebeb"/><path id="Pfad_27904" d="M168.3 103.5c-.3 0-.5.1-.8.1h-2.2c-1.9 0-4.6 0-8.1.1-6.8 0-16.2-.1-26.6-.3l-26.6-.5-8.1-.1h-2.2a2.2 2.2 0 01-.8-.1h3c1.9 0 4.6 0 8.1-.1 6.8 0 16.2.1 26.6.3l26.6.5 8 .1 2.2.1c.4-.1.6-.2.9-.1z" fill="#e0e0e0"/><g id="Gruppe_1304" transform="translate(114.364 55.867)"><g id="Gruppe_1302" transform="translate(7.007 7.847)"><path id="Pfad_27905" d="M16.8 5.6h.2a2.112 2.112 0 012.1 2.1v.6a2.112 2.112 0 01-2.1 2.1h-.2V5.6z" fill="#263238"/><path id="Pfad_27906" d="M16.7 10.5V5.6h.3a2.035 2.035 0 011.5.6 2.035 2.035 0 01.6 1.5v.6a2.135 2.135 0 01-2.2 2.1zm.1-4.9v4.9h.2a2.051 2.051 0 002.1-2.1v-.6a2.035 2.035 0 00-.6-1.5 2.035 2.035 0 00-1.5-.6z" fill="#263238"/><path id="Pfad_27907" d="M2.3 10.3h-.2a2 2 0 01-2-2.2v-.6a2.135 2.135 0 012.2-2.1h.2z" fill="#263238"/><path id="Pfad_27908" d="M.6 9.7A2.452 2.452 0 010 8.1v-.6a2.135 2.135 0 012.2-2.1h.2l-.2 4.9H2a1.974 1.974 0 01-1.4-.6zm1.7-4.2a2.138 2.138 0 00-2.3 2v.6a2.035 2.035 0 00.6 1.5l.1.1a1.974 1.974 0 001.4.6h.2l.2-4.8z" fill="#263238"/><path id="Rechteck_507" transform="rotate(-6.108 12.564 -53.163)" fill="#455a64" d="M0 0h.4v3.2H0z"/><path id="Rechteck_508" transform="rotate(-77.391 9.195 -5.694)" fill="#455a64" d="M0 0h3.2v.4H0z"/><path id="Pfad_27909" d="M6.7.7a.961.961 0 01-.7.9.961.961 0 01-.9-.7.961.961 0 01.7-.9.808.808 0 01.9.7z" fill="#263238"/><path id="Rechteck_509" d="M1.9 13.4V6.1A2.274 2.274 0 014.1 4h11a2.051 2.051 0 012.1 2.1v7.3a2.051 2.051 0 01-2.1 2.1h-11a2.135 2.135 0 01-2.2-2.1z" fill="#f8b02f"/><path id="Rechteck_510" d="M3 8.7V7.6a1.793 1.793 0 011.8-1.8h9.5a1.793 1.793 0 011.8 1.8v1.1a1.793 1.793 0 01-1.8 1.8H4.8A1.933 1.933 0 013 8.7z" fill="#fff"/><path id="Pfad_27910" d="M13.8 11.1h.4a3.81 3.81 0 001-.3 3.838 3.838 0 001.1-1.1c.1-.3.2-.6.3-1V7.5a3.582 3.582 0 00-.4-1.1 2.836 2.836 0 00-1-.9 1.445 1.445 0 00-.7-.2c-.2 0-.5-.1-.7-.1H5.5a2.271 2.271 0 00-1.6.6 2.534 2.534 0 00-1 1.8v1.2a2.8 2.8 0 002 2.2h8.5l.4.1H5a.756.756 0 01-.4-.1 2.673 2.673 0 01-2-2.2V7.6a.6.6 0 01.1-.4 6.89 6.89 0 01.3-.8c.2-.2.4-.5.6-.6a2.716 2.716 0 011.7-.6h8.3a1.7 1.7 0 01.7.1 2.656 2.656 0 012.1 2.3v1.2a1.929 1.929 0 01-.3 1 1.794 1.794 0 01-.5.7 2.092 2.092 0 01-.6.4 1.689 1.689 0 01-1 .3c0-.1 0-.1-.2-.1z" fill="#263238"/><circle id="Ellipse_190" cx=".8" cy=".8" r=".8" transform="translate(12.9 .2)" fill="#263238"/><path id="Pfad_27912" d="M14 15.5v-.2c.1.1.1.1 0 .2z" fill="#263238"/><path id="Pfad_27913" d="M7.2 13.2h0z" fill="#263238" stroke="#263238" stroke-linecap="round" stroke-linejoin="round" stroke-width=".657"/><path id="Pfad_27914" d="M4.1 12h-.3c-.1 0-.1-.2 0-.2.1-.1.2-.1.2 0 .1 0 .1.1.1.2z" fill="#263238"/><path id="Pfad_27915" d="M4 13.8c-.1.1-.2.1-.2 0s-.1-.2 0-.2c.1-.1.2-.1.2 0 .1.1.1.2 0 .2z" fill="#263238"/><path id="Pfad_27916" d="M14.8 11.9c-.1.1-.2.1-.2 0-.1-.1-.1-.2 0-.2.1-.1.2-.1.2 0 .1 0 .1.1 0 .2z" fill="#263238"/><path id="Pfad_27917" d="M14.7 13.7a.139.139 0 01-.2 0v-.2c.1-.1.2-.1.2 0 .1 0 .1.2 0 .2z" fill="#263238"/><path id="Pfad_27918" d="M.4 8.6v-.5a4.331 4.331 0 01-.1-.5A1.268 1.268 0 01.4 7a1.6 1.6 0 01.7-.9c.2-.1.3-.1.4-.2h.1a.758.758 0 01-.4.2 2.016 2.016 0 00-.7.9 2.045 2.045 0 000 1.1.749.749 0 01-.1.5z" fill="#fff"/><path id="Pfad_27919" d="M14.6 4.6H9.5c-2.8 0-5-.1-5-.1h5.1c2.8 0 5 .1 5 .1z" fill="#fff"/><path id="Pfad_27920" d="M5.4 1.1a.349.349 0 01-.1-.2.792.792 0 01.5-.8H6s0 .1-.2.1a.319.319 0 00-.3.3c-.1.1-.1.2-.1.4 0 .1.1.2 0 .2z" fill="#fff"/><path id="Pfad_27921" d="M13.1 1.4a.349.349 0 01-.1-.2.587.587 0 01.5-.7.752.752 0 00-.5.7c.1.1.2.2.1.2z" fill="#fff"/><path id="Pfad_27922" d="M18.2 6.4a2.186 2.186 0 01-.5-.3c-.2-.1-.4-.1-.6-.2a1.7 1.7 0 01.7.1c.1.1.3.2.4.4z" fill="#fff"/><path id="Pfad_27923" d="M2.2 13.5v-1.6a4.578 4.578 0 01.1-1.6 7.041 7.041 0 010 1.6 12.58 12.58 0 01-.1 1.6z" fill="#fff"/><g id="Gruppe_1301" transform="translate(5.92 7.49)" fill="#263238"><path id="Pfad_27924" d="M2.2.9L1.4.1a.446.446 0 00-.5 0L.1.9a.446.446 0 000 .5.3.3 0 00.4 0l.6-.6.6.6c.2 0 .2.1.3.1s.2 0 .2-.1a.446.446 0 000-.5z"/><path id="Pfad_27925" d="M6.7.9L5.9.1a.3.3 0 00-.4 0l-.9.8a.3.3 0 000 .4.3.3 0 00.4 0l.6-.6.6.6a.3.3 0 00.4 0c.3 0 .3-.2.1-.4z"/></g></g><g id="Gruppe_1303"><path id="Pfad_27926" d="M16.6 33.1a16.55 16.55 0 1116.6-16.5 16.538 16.538 0 01-16.6 16.5zm0-30.4a13.85 13.85 0 1013.7 13.9A13.7 13.7 0 0016.6 2.7z" fill="#263238"/></g></g><path id="Pfad_27927" d="M173.1 424.7H86.5a14.084 14.084 0 01-14.1-14.1v-16.7a14.084 14.084 0 0114.1-14.1h72.6a14.084 14.084 0 0114.1 14.1l-.1 30.8z" fill="#ebebeb"/></g><g id="freepik--character-2--inject-57" transform="translate(453.614 303.992)"><path id="Pfad_27928" d="M149.7 130.7l-98.4 46.2L73.4 73.7h37.8c4.4 0 19.8 5.2 23.6 15.2 0 0 16.5 39.6 14.9 41.8" fill="#f8b02f"/><path id="Pfad_27929" d="M145.8 116.8l26.7 102-18.9 5.2s-36.3-78.4-35.7-79.7 27.9-27.5 27.9-27.5z" fill="#f8b02f"/><g id="Gruppe_1305" transform="translate(123.018 111.233)" opacity=".2"><path id="Pfad_27930" d="M1.8 0a10.9 10.9 0 018.7 5.5 29.989 29.989 0 013.3 10.1 132.617 132.617 0 011.8 19.9c0 3.6 0 7.3 1.8 10.4s5.5 4.7 8.5 6.7a30.477 30.477 0 0113.2 25.2c-.2 9.9-6.7 16.4-14.9 21.5L10.8 57 0 9z"/></g><path id="Pfad_27931" d="M128.1 95.5a96.026 96.026 0 01-1.8 10.5 97.5 97.5 0 01-2.4 10.4 96.026 96.026 0 011.8-10.5 92.189 92.189 0 012.4-10.4z" fill="#263238"/><path id="Pfad_27932" d="M110.9 74.9a3.083 3.083 0 01.1 1 11.7 11.7 0 01-.4 2.6 13.472 13.472 0 01-12.8 10 10.9 10.9 0 01-2.6-.3 1.613 1.613 0 01-.9-.3c0-.1 1.3.2 3.5.1a13.586 13.586 0 0012.4-9.7c.6-2 .6-3.4.7-3.4z" fill="#263238"/><path id="Pfad_27933" d="M104.3 100.4a10.611 10.611 0 011.6-3.4 10.623 10.623 0 012.1-3.1 10.611 10.611 0 01-1.6 3.4 10.623 10.623 0 01-2.1 3.1z" fill="#fafafa"/><path id="Pfad_27934" d="M119.6 106.5a10.285 10.285 0 01-2.2-3.6 11.9 11.9 0 01-1.1-4.1 22.96 22.96 0 011.7 3.9 14.484 14.484 0 011.6 3.8z" fill="#fafafa"/><path id="Pfad_27935" d="M123.6 89.3a10.207 10.207 0 01-3.8-1 9 9 0 01-3.4-2c2.5.9 4.8 1.9 7.2 3z" fill="#fafafa"/><path id="Pfad_27936" d="M135.9 114.9c.9-2.2 1.8-4.5 2.6-6.7a9.711 9.711 0 01-2.6 6.7z" fill="#fafafa"/><path id="Pfad_27937" d="M147.8 160.4a9.68 9.68 0 01-3.1-1.8 9.994 9.994 0 01-2.7-2.3 21.1 21.1 0 015.8 4.1z" fill="#fafafa"/><path id="Pfad_27938" d="M157.3 212.5a80.765 80.765 0 013.5-8 18.024 18.024 0 01-3.5 8z" fill="#fafafa"/><path id="Pfad_27939" d="M85.7 40.1C83.2 32 84.3 18.4 90 11.7S105.4 1.2 114 .1a7.153 7.153 0 014.3.5 2.836 2.836 0 011.4 3.6 19.576 19.576 0 015.7-2.1 5.977 5.977 0 015.5 1.8 3.9 3.9 0 01-.3 5.4 6.573 6.573 0 018 4.7 6.708 6.708 0 01-.6 4.8 20.263 20.263 0 01-5.4 5.9c-1.9 1.5-2.4 3.1-2.3 5.6" fill="#263238"/><path id="Pfad_27940" d="M130.8 30.8a22.788 22.788 0 00-18-25l-1.2-.2C99.1 3.7 90.5 13.4 89 26l-6.3 46.1a14.316 14.316 0 0011.9 16 14.257 14.257 0 0016.3-11.9.6.6 0 01.1-.4c.3-2.8.6-4.8.6-5s12.3.6 14.9-11.3c1.4-5.8 3-17.8 4.3-28.7z" fill="#eb996e"/><path id="Pfad_27941" d="M111.7 70.8A28.588 28.588 0 0197.1 63s2.1 9.3 14.2 10.7z" fill="#d16f43"/><path id="Pfad_27942" d="M125.7 38a1.856 1.856 0 01-2 1.4 1.62 1.62 0 01-1.4-1.9 1.856 1.856 0 012-1.4 1.772 1.772 0 011.4 1.9z" fill="#263238"/><path id="Pfad_27943" d="M127 36.1c-.3.2-1.4-1-3.2-1.4s-3.4.3-3.5 0 .2-.5.9-.8a4.78 4.78 0 012.9-.3 4.523 4.523 0 012.4 1.4c.6.6.7 1 .5 1.1z" fill="#263238"/><path id="Pfad_27944" d="M107.6 35a1.856 1.856 0 01-2 1.4 1.62 1.62 0 01-1.4-1.9 1.856 1.856 0 012-1.4 1.707 1.707 0 011.4 1.9z" fill="#263238"/><path id="Pfad_27945" d="M109 32.7c-.3.2-1.4-1-3.2-1.4s-3.4.3-3.5 0 .2-.5.9-.8a4.78 4.78 0 012.9-.3 4.523 4.523 0 012.4 1.4c.5.6.6 1 .5 1.1z" fill="#263238"/><path id="Pfad_27946" d="M112.8 47.7a10.751 10.751 0 013.1.1c.5 0 .9 0 1.1-.3a3.3 3.3 0 000-1.4c-.2-1.2-.4-2.5-.7-3.9-.9-5.5-1.4-9.9-1.2-10s1.1 4.4 2 9.8c.2 1.4.4 2.6.6 3.9a3.1 3.1 0 01-.1 1.9 1.05 1.05 0 01-.9.5h-.8a10.657 10.657 0 01-3.1-.6z" fill="#263238"/><path id="Pfad_27947" d="M107.2 47.8c.3 0-.1 2 1.3 3.8s3.6 2 3.5 2.3-.5.3-1.4.1a5.213 5.213 0 01-3-1.8 4.552 4.552 0 01-1-3.2c.1-.7.4-1.2.6-1.2z" fill="#263238"/><path id="Pfad_27948" d="M110.9 25.6c-.3.5-2.1-.2-4.3-.3s-4.1 0-4.3-.5c-.1-.2.3-.6 1.1-1a7.048 7.048 0 016.5.6c.8.5 1.1 1 1 1.2z" fill="#263238"/><path id="Pfad_27949" d="M127.5 30.6c-.4.4-1.6-.3-3.1-.7s-2.9-.3-3.1-.8c-.1-.2.2-.6.8-.9a4.706 4.706 0 015 1.2c.5.6.6 1.1.4 1.2z" fill="#263238"/><path id="Pfad_27950" d="M88.2 35c-.2-.1-7.7-4.1-9.1 4.1s7.1 7.9 7.2 7.7S88.2 35 88.2 35z" fill="#eb996e"/><path id="Pfad_27951" d="M84.4 43.3a.6.6 0 01-.4.1 1.389 1.389 0 01-1.1-.2 3.554 3.554 0 01-1.1-3.5 6.789 6.789 0 01.7-2 1.6 1.6 0 011.3-.9.792.792 0 01.8.5v.4s.2-.1.2-.5a1.421 1.421 0 00-.2-.6 2.507 2.507 0 00-.7-.4 1.936 1.936 0 00-1.7 1 4.69 4.69 0 00-.9 2.2c-.2 1.7.4 3.4 1.5 3.9a1.483 1.483 0 001.3 0c.2.2.3 0 .3 0z" fill="#d16f43"/><path id="Pfad_27952" d="M138.7 16.2c-.9 10.8-14.7 13-19.5 6-2.2-3.2-3.9-7.1-7.2-8.9a9.593 9.593 0 00-7.6-.5h-.1c-3.6 1.2-6.4 4.7-7.5 8.5-1.6 5.1-1.6 9.9-3.8 14.5a3.147 3.147 0 01-1.3 1.7c-1.1.5-2.4-.3-3.1-1.4a10.6 10.6 0 01-1.1-5.8 33.633 33.633 0 012.8-13.2 22.51 22.51 0 018.5-10.3 21.913 21.913 0 0116.4-2.6 26.97 26.97 0 0114.3 8.7 16.378 16.378 0 013.8 6.8" fill="#263238"/><path id="Pfad_27953" d="M131 8.8a3.6 3.6 0 011.1.2 5.2 5.2 0 012.4 2 7.2 7.2 0 011.3 4.5 8.019 8.019 0 01-2.5 5.1 10.648 10.648 0 01-5 2.7 14.24 14.24 0 01-4.6.2 16.96 16.96 0 01-3.1-.6 4.875 4.875 0 01-1.1-.4c0-.1 1.6.4 4.2.6a17.062 17.062 0 004.5-.3 9.534 9.534 0 004.7-2.6 7.646 7.646 0 002.4-4.7 6.992 6.992 0 00-1.1-4.2 6.09 6.09 0 00-2.2-2 9.292 9.292 0 00-1-.5z" fill="#455a64"/><path id="Pfad_27954" d="M126.2 4.1a1.33 1.33 0 01.8.3 2.61 2.61 0 011 2 4.714 4.714 0 01-1.2 3 11.969 11.969 0 01-2.8 2.7 13.9 13.9 0 01-6.5 2.7 7.079 7.079 0 01-2.9 0c0-.1 1.1-.1 2.9-.4a15.848 15.848 0 006.2-2.8 16.614 16.614 0 002.7-2.6 4.468 4.468 0 001.2-2.7 2.41 2.41 0 00-.7-1.8c-.4-.3-.7-.3-.7-.4z" fill="#455a64"/><path id="Pfad_27955" d="M72.7 189.7c1.2.1 59.3-19.5 59.3-19.5s26.4-5.8 29.4 11.1-24.2 36.9-24.2 36.9L89 242.5l-25-19.6 3.6-14.9z" fill="#eb996e"/><path id="Pfad_27956" d="M94 211.4L61.7 231a4.312 4.312 0 00-1.5 5.7l21.1 35.5s3.8 3-1.8-23.5l28.2-15.5z" fill="#ebebeb"/><path id="Pfad_27957" d="M109.8 199.8a71.454 71.454 0 01-7.6 6 88.253 88.253 0 01-8 5.6 71.454 71.454 0 017.6-6 63.7 63.7 0 018-5.6z" fill="#d16f43"/><path id="Pfad_27958" d="M79 217.2c8.4-15.6 16.2-35.9 23.8-58.7l7.9 44.2 4.6 25.4 21-2.8-3.9-94.1s-4.7-19.3-21.6-20.5c-14.5-1-27.4 7.5-36.4 26.9a252.405 252.405 0 01-19.5 34.3z" fill="#eb996e"/><path id="Pfad_27959" d="M10.5 228a50.919 50.919 0 0048.1 4.9l20.5-13.8s-2-23.9-8.6-34.1l-5.9 1.5 3.9-4.9-9.9-14.7-26.1 25.7z" fill="#455a64"/><path id="Pfad_27960" d="M100.7 164.8a4.332 4.332 0 01-.1.5l-.6 1.5c-.5 1.4-1.2 3.3-2 5.6-1.7 4.7-3.9 11.4-6.5 18.6a145.167 145.167 0 01-7.8 18.1c-.6 1.1-1.2 2.1-1.7 3s-1 1.6-1.4 2.2-.7 1-.9 1.3a.781.781 0 01-.4.4c.1-.2.2-.3.3-.5l.8-1.4c.4-.6.8-1.4 1.3-2.2s1-1.9 1.6-3a168.817 168.817 0 007.6-18.1c2.6-7.2 4.9-13.8 6.7-18.5.9-2.4 1.7-4.3 2.2-5.6l.7-1.5a.619.619 0 01.2-.4z" fill="#d16f43"/><path id="Pfad_27961" d="M103.9 165a5.732 5.732 0 01.4 1.4c.2.9.5 2.2.8 3.8.7 3.2 1.5 7.6 2.4 12.6s1.6 9.4 2 12.6a36.7 36.7 0 01.4 3.9 6.6 6.6 0 01.1 1.4 3.194 3.194 0 01-.3-1.4c-.2-1-.4-2.3-.6-3.8-.6-3.4-1.3-7.7-2.2-12.6s-1.6-9.2-2.2-12.6c-.3-1.5-.5-2.8-.6-3.8a10.4 10.4 0 01-.2-1.5z" fill="#d16f43"/><path id="Pfad_27962" d="M134 196.7c-.2 0-.4-9.1-.5-20.3s-.1-20.3.1-20.3.4 9.1.5 20.3.1 20.3-.1 20.3z" fill="#d16f43"/><path id="Pfad_27963" d="M109.1 201l6.5 36.2a5.422 5.422 0 006 4.4l41.3-5.4s2.4-3.8-24.2-8.2l-3.6-31.6z" fill="#e0e0e0"/><g id="Gruppe_1306" transform="translate(101.13 129.892)" opacity=".2"><path id="Pfad_27964" d="M12.8.2C6.6-.3.2 7.1 0 13.6a3.861 3.861 0 00.3 2.1A1.968 1.968 0 001.8 17a2.425 2.425 0 002.6-1.6 7.173 7.173 0 00.6-2.9C4.8 5.8 8 1.6 12.8 0"/></g><path id="Pfad_27965" d="M155.9 223.4l4.5 12.8h35.7s-2-3-9.3-3.7l-13.4-1.3-3.3-11.7z" fill="#eb996e"/><path id="Pfad_27966" d="M83.4 68.8S59.7 73 51 84.3c-6.9 9-33 59.4-43.4 79.8a65.261 65.261 0 00-6.4 20.2c-2 15.1-3.2 39.9 9.7 43.6 0 0 14.8-7.6 21.9-22.8a52.526 52.526 0 013.6-6.6l10-14.8s11.2-12.3 16.4-22.5l9.7-18.3 2.4-5.4 7.7-63.2z" fill="#f8b02f"/><path id="Pfad_27967" d="M67.5 119.6a10.588 10.588 0 01-8.9-6.1 23.424 23.424 0 004 3.7 24.683 24.683 0 004.9 2.4z" fill="#263238"/><path id="Pfad_27968" d="M30.9 160.7a11.135 11.135 0 011.7-.2 14.768 14.768 0 002.1-.1c.8-.1 1.7-.1 2.7-.3a56.255 56.255 0 006.9-1.4 53.487 53.487 0 0021.3-11.3c.8-.6 1.4-1.3 2-1.8s1.1-1 1.5-1.4a15.38 15.38 0 011.3-1.2 13.444 13.444 0 01-1.1 1.4 19.2 19.2 0 01-1.4 1.5c-.6.6-1.2 1.2-2 1.9a47.1 47.1 0 01-5.6 4.4 53.594 53.594 0 01-15.8 7.1 54 54 0 01-7 1.3c-1 .1-1.9.2-2.7.2h-2.1a10.866 10.866 0 01-1.8-.1z" fill="#263238"/><path id="Pfad_27969" d="M13.9 196.4a8.8 8.8 0 01.5-1.5 36 36 0 012-3.9A27.006 27.006 0 0141 178.5a20.325 20.325 0 014.3.7 8.8 8.8 0 011.5.5 55.959 55.959 0 00-5.9-.7 27.714 27.714 0 00-24.2 12.2 52.063 52.063 0 00-2.8 5.2z" fill="#263238"/><path id="Pfad_27970" d="M50.6 176c0 .2-3.8.4-8.5.8s-8.5.8-8.5.6a6.874 6.874 0 012.4-.5c1.5-.2 3.6-.5 5.9-.7s4.5-.3 6-.3a7.957 7.957 0 012.7.1z" fill="#263238"/><g id="Gruppe_1307" transform="translate(31.175 125.653)" opacity=".2"><path id="Pfad_27971" d="M14.9 58.2c.3.1 1.1-2.8.8-4.2-4.7-1.9-7.4-.5-10.7-1-.4-.1-4.7 1.7-5 1.3-.5-.7 2.6-2.4 3.4-2.5 6.1-1.4 11.3-2.1 15.2-4.5a8.5 8.5 0 004.5-5.6c.6-2 1.2-4 1.9-5.9.4-1.1.5-2.6-.5-3.1-.8-.4-1.6.1-2.4.5s-1.9.5-2.3-.3c-.5-.9.8-1.8 1.8-2.1a29.036 29.036 0 0018-22.7l-.5-8 4.4 12.2-12.2 23.4a128.191 128.191 0 01-16.4 22.5z"/></g><path id="Pfad_27972" d="M44.9 131.1a36.457 36.457 0 01-.8-7.4 47 47 0 01-.2-7.5 36.457 36.457 0 01.8 7.4 47.612 47.612 0 01.2 7.5z" fill="#fafafa"/><path id="Pfad_27973" d="M60 137.9a45.018 45.018 0 01-6 8.3 19.835 19.835 0 012.8-4.3 13.78 13.78 0 013.2-4z" fill="#fafafa"/><path id="Pfad_27974" d="M38.5 158.6a9.055 9.055 0 01-1.3-2.6 8.865 8.865 0 01-.7-2.8 9.055 9.055 0 011.3 2.6 5.547 5.547 0 01.7 2.8z" fill="#fafafa"/><path id="Pfad_27975" d="M25.7 170.1c-.7 1.2-1.4 2.5-2.2 3.6a27.061 27.061 0 01-2.1 3.7 13.38 13.38 0 014.3-7.3z" fill="#fafafa"/><path id="Pfad_27976" d="M22.4 160.4a38.089 38.089 0 01-2.7-9.3 17.909 17.909 0 011.6 4.6 12.449 12.449 0 011.1 4.7z" fill="#fafafa"/><path id="Pfad_27977" d="M40.2 137.8a17.885 17.885 0 01-8.9.4 32.53 32.53 0 014.4-.3c1.5-.1 3-.1 4.5-.1z" fill="#fafafa"/><path id="Pfad_27978" d="M62.5 126.8a50.883 50.883 0 01.4-5.6 7.271 7.271 0 01-.4 5.6z" fill="#fafafa"/><path id="Pfad_27979" d="M58.8 101a10.861 10.861 0 01-3.9 1.1 9.448 9.448 0 01-4.1 0 27.607 27.607 0 014-.6c1.3-.2 2.7-.4 4-.5z" fill="#fafafa"/><path id="Pfad_27980" d="M195.3 102.9L178 116l-7.4 3.3 7.4-11.1 14-9.8a2.844 2.844 0 013.9.6 2.945 2.945 0 01-.6 3.9z" fill="#263238"/><path id="Pfad_27981" d="M126.9 133.7c.8 0 24.4-9.3 24.9-10.6s.3-4.8 4.9-6.1 9.5-2.9 9.5-2.9l12-8s3.3 1.1.3 4.7a40.749 40.749 0 01-5.6 5.4c-1.1 1 .5 1.8.5 1.8l16.9-11.9a16.9 16.9 0 01-3.4 8.3l-2.3 3.1a6.256 6.256 0 01-1.8 6.8c-3.4 3.1-8.8 11.1-14.5 11.4s-9.7.7-9.7.7l-29.7 14.5z" fill="#eb996e"/><path id="Pfad_27982" d="M185.5 116.3a43.828 43.828 0 01-8.7 6.7 56 56 0 018.7-6.7z" fill="#d16f43"/><path id="Pfad_27983" d="M62.5 77.8s14.6-7.2 23.5-2c7.1 4.2 12.2 23 17.1 33.3 1.2 2.6 3.9 4.5 4.8 5.6 4.8 5.7 6 15.4 6 15.4l33.7-6.2 3.6 21.5s-32.8 24.6-51.7 18.9c-19.6-5.9-26.1-29.8-26.1-29.8z" fill="#f8b02f"/><path id="Pfad_27984" d="M106.3 143.1v-.3a2.2 2.2 0 00-.1-.8v-1.4a11.019 11.019 0 01.2-1.8 11.562 11.562 0 012-4.7 12.06 12.06 0 015.6-4.1l33.7-6.3h.3v.3c1.1 6.6 2.3 13.8 3.6 21.5v.2l-.2.1a152.476 152.476 0 01-22.8 13.3l-2.3 1.1-2.4.9-2.4.9-2.4.8a42.735 42.735 0 01-4.8 1.3c-.8.2-1.6.3-2.4.5a20.022 20.022 0 01-2.4.4 30.243 30.243 0 01-9.5-.1 21.048 21.048 0 01-8.5-3.5A41.85 41.85 0 0180 149.2a76.045 76.045 0 01-6.5-13.1c-1.6-4.2-2.8-8-3.9-11.4s-2-6.3-2.8-8.7-1.5-4.2-2-5.4l-.5-1.4c-.1-.2-.1-.3-.2-.5a.764.764 0 01.2.5l.6 1.4q.75 1.8 2.1 5.4c.9 2.4 1.8 5.3 2.9 8.6s2.4 7.2 4 11.4a71.755 71.755 0 006.5 13 40.731 40.731 0 0011.4 12c4.8 3.4 11.3 4.4 17.6 3.5a20.025 20.025 0 002.4-.4c.8-.2 1.6-.3 2.4-.5 1.6-.4 3.2-.8 4.7-1.3l2.4-.8c.8-.3 1.6-.6 2.3-.9s1.6-.6 2.3-.9l2.3-1.1a156.646 156.646 0 0022.7-13.3l-.1.3c-1.3-7.6-2.5-14.9-3.6-21.5l.3.2-33.7 6a12.092 12.092 0 00-5.5 3.9 9.7 9.7 0 00-2.1 4.6 11.019 11.019 0 00-.2 1.8v2.1z" fill="#263238"/><path id="Pfad_27985" d="M114 130.1c-.1-.2-.1-.5-.2-.7a19.532 19.532 0 00-.5-2.2 30.255 30.255 0 00-2.8-7.6c-1.6-3-4.5-6-7.2-9.7a30.34 30.34 0 01-3.8-6.2 69.272 69.272 0 01-2.6-7.2q-1.05-3.75-2.4-7.2a47.089 47.089 0 00-3.3-6.3 37.514 37.514 0 00-3.8-5.1 11.733 11.733 0 00-4.5-3.1 17.725 17.725 0 00-7.9-1.2c-1.9.1-2.9.5-3 .4.2-.1.5-.2.7-.3a16.958 16.958 0 012.2-.4 18.5 18.5 0 018.1 1 12.663 12.663 0 014.8 3.2 32.087 32.087 0 013.9 5.2 48.863 48.863 0 013.4 6.4 62.3 62.3 0 012.4 7.3 55.855 55.855 0 002.6 7.2 32.907 32.907 0 003.6 6c2.8 3.6 5.6 6.7 7.2 9.8a31.117 31.117 0 012.6 7.8c.2.9.3 1.7.4 2.2 0 .2.1.5.1.7z" fill="#263238"/><path id="Pfad_27986" d="M63.4 87.7a11.366 11.366 0 01.3-3.7 8.792 8.792 0 011-3.6 11.366 11.366 0 01-.3 3.7 16.148 16.148 0 01-1 3.6z" fill="#fafafa"/><path id="Pfad_27987" d="M84.2 83.3a12.171 12.171 0 01-3.8.7 12.194 12.194 0 01-3.8.1 9.857 9.857 0 013.8-.7 12.039 12.039 0 013.8-.1z" fill="#fafafa"/><path id="Pfad_27988" d="M72.5 108a26.965 26.965 0 01-1.3-8.5 26.965 26.965 0 011.3 8.5z" fill="#fafafa"/><path id="Pfad_27989" d="M93.3 104.7a26.75 26.75 0 01-8-.4 13.421 13.421 0 014-.1 13.721 13.721 0 014 .5z" fill="#fafafa"/><path id="Pfad_27990" d="M81.8 126a14.843 14.843 0 011.2-4.1 13.842 13.842 0 011.8-3.9 28.641 28.641 0 01-3 8z" fill="#fafafa"/><path id="Pfad_27991" d="M102.3 125.3a15.368 15.368 0 01-3-8 27.805 27.805 0 011.6 4 18.993 18.993 0 011.4 4z" fill="#fafafa"/><path id="Pfad_27992" d="M93.2 140.3a10.889 10.889 0 01-3.1-.8 9.2 9.2 0 01-2.8-1.4 10.889 10.889 0 013.1.8 6.187 6.187 0 012.8 1.4z" fill="#fafafa"/><path id="Pfad_27993" d="M99.7 156.5a30.968 30.968 0 01-4.5-2.1 38.184 38.184 0 01-4.6-2.1 13.45 13.45 0 014.8 1.5 14.312 14.312 0 014.3 2.7z" fill="#fafafa"/><path id="Pfad_27994" d="M115.5 150.6a33.4 33.4 0 01-6.3 6.7 30.094 30.094 0 016.3-6.7z" fill="#fafafa"/><path id="Pfad_27995" d="M117.2 140c-.8-1-1.6-2-2.3-3a21.721 21.721 0 01-2.4-2.9 6.84 6.84 0 012.9 2.4 6.241 6.241 0 011.8 3.5z" fill="#fafafa"/><path id="Pfad_27996" d="M126.8 145.4a26.429 26.429 0 011.2-4 26.429 26.429 0 011.2-4 15.009 15.009 0 01-2.4 8z" fill="#fafafa"/><path id="Pfad_27997" d="M139.8 132a15.484 15.484 0 01-4.3 0 15.4 15.4 0 01-4.3-.6 16.2 16.2 0 014.4 0 15.774 15.774 0 014.2.6z" fill="#fafafa"/><path id="Pfad_27998" d="M140 146a15.8 15.8 0 01-3.6 2 12.971 12.971 0 01-3.9 1.4 23.136 23.136 0 017.5-3.4z" fill="#fafafa"/><path id="Pfad_27999" d="M26.2 199.8a14.2 14.2 0 01.3-4.1 10.217 10.217 0 011-3.9 14.2 14.2 0 01-.3 4.1 18.645 18.645 0 01-1 3.9z" fill="#fafafa"/><path id="Pfad_28000" d="M18.8 208a14.436 14.436 0 01-4.2-1.1 17.835 17.835 0 01-4-1.7 18.489 18.489 0 014.2 1.1 20.034 20.034 0 014 1.7z" fill="#fafafa"/><path id="Pfad_28001" d="M12.6 212.1a18.312 18.312 0 01-.5 4.7 23.728 23.728 0 01-1.1 4.6 32.406 32.406 0 011.6-9.3z" fill="#fafafa"/><path id="Pfad_28002" d="M12.3 180.3a23.52 23.52 0 01-3 3.3 24.224 24.224 0 01-3.1 3.3 10.786 10.786 0 012.6-3.7 12.053 12.053 0 013.5-2.9z" fill="#fafafa"/><path id="Pfad_28003" d="M51.7 167.1a13.058 13.058 0 01-9.2 2.3c0-.2 2.1-.3 4.6-.9s4.5-1.5 4.6-1.4z" fill="#fafafa"/></g><g id="freepik--character-1--inject-57" transform="translate(105.29 174.011)"><path id="Pfad_28004" d="M203.2 226.7h-7.8l-21.1.1-69.8.1-69.8-.1-21.1-.1H7.9l5.7-.1 21.1-.1 69.8-.1 69.8.1 21.1.1 5.7.1z" fill="#263238"/><path id="Pfad_28005" d="M47.3 87.4L73.9 73l26.4-3.6 24.2 92-2.2 28.4-68.3 3.6 2.8-66z" fill="#ebebeb"/><path id="Pfad_28006" d="M93.3 20.8a40.728 40.728 0 00-41.3-.9s.8 27.1 2.2 38.7 13.3 12.3 13.3 12.3l.5 4.3a14.88 14.88 0 0016.3 13.1 14.9 14.9 0 0013.3-15.4L95.3 22z" fill="#b78876"/><path id="Pfad_28007" d="M67.4 70.8a27.552 27.552 0 0014.8-5.9s-2.7 8.8-14.5 9z" fill="#aa6550"/><path id="Pfad_28008" d="M95 34.2c.2-.1 7.8-3.2 8.4 4.8s-7.6 7-7.6 6.7-.8-11.5-.8-11.5z" fill="#b78876"/><path id="Pfad_28009" d="M98 42.5c.1.1.3.1.4.2a1.7 1.7 0 001 0 3.592 3.592 0 001.4-3.2 4.552 4.552 0 00-.5-2 1.572 1.572 0 00-1.1-1 .68.68 0 00-.8.4v.4s-.2-.1-.1-.5a.55.55 0 01.3-.5 1.135 1.135 0 01.8-.3 1.779 1.779 0 011.5 1.1 5.678 5.678 0 01.7 2.2 3.5 3.5 0 01-1.8 3.6 1.5 1.5 0 01-1.3-.1c-.5-.1-.5-.3-.5-.3z" fill="#aa6550"/><path id="Pfad_28010" d="M57.5 39.2a1.706 1.706 0 003.4-.2 1.669 1.669 0 00-1.8-1.5 1.605 1.605 0 00-1.6 1.7z" fill="#263238"/><path id="Pfad_28011" d="M55.9 36.2c.2.2 1.4-.9 3.2-1.1s3.2.6 3.4.3-.2-.5-.8-.8a4.855 4.855 0 00-2.7-.5 4.721 4.721 0 00-2.5 1.1c-.5.5-.7.9-.6 1z" fill="#263238"/><path id="Pfad_28012" d="M75.4 38.1a1.669 1.669 0 001.8 1.5 1.58 1.58 0 001.6-1.6v-.1a1.669 1.669 0 00-1.8-1.5 1.605 1.605 0 00-1.6 1.7z" fill="#263238"/><path id="Pfad_28013" d="M73.6 34.7c.2.2 1.4-.9 3.2-1.1s3.2.6 3.4.3-.2-.5-.8-.8a3.69 3.69 0 00-2.7-.5 4.721 4.721 0 00-2.5 1.1c-.6.5-.7.9-.6 1z" fill="#263238"/><path id="Pfad_28014" d="M68.5 48.7a10.123 10.123 0 00-3-.2c-.5 0-.9 0-1-.4a2.2 2.2 0 01.2-1.4c.3-1.2.7-2.4 1-3.6 1.4-5.2 2.3-9.4 2.1-9.5s-1.5 4.1-2.8 9.3q-.45 1.95-.9 3.6a2.775 2.775 0 000 1.8 1.555 1.555 0 00.8.6h.8a9.037 9.037 0 002.8-.2z" fill="#263238"/><path id="Pfad_28015" d="M72.4 27.7c.2.5 2 0 4.1.1s3.9.4 4.1 0c.1-.2-.2-.6-1-1.1a6.7 6.7 0 00-3.1-.7 7.111 7.111 0 00-3.2.7c-.6.3-1 .7-.9 1z" fill="#263238"/><path id="Pfad_28016" d="M56 30.9c.4.4 1.5-.2 3-.4s2.8 0 3-.5c.1-.2-.1-.6-.7-.9a4.257 4.257 0 00-4.8.7c-.5.5-.6.9-.5 1.1z" fill="#263238"/><path id="Pfad_28017" d="M45.5 13.2a4.193 4.193 0 011.2-4 3.041 3.041 0 014-.1A3.7 3.7 0 0153 4.5c.1 0 .2-.1.3-.1 1.9-.3 3.6 1 5.6 1.2a8.481 8.481 0 005.4-1.2c1.7-.9 3.2-2 4.8-2.8a15.021 15.021 0 0120.1 6.8 6.691 6.691 0 017.3 1.9 11.336 11.336 0 012.5 7.5 25.177 25.177 0 01-.8 5.4c0 .2 0 .3.1.4.6 6.4.6 14.1-2.1 14.4-4.8.6-4.6-8.6-4.6-8.6-6-1.7-4.8-10.7-6.4-11.8s-5-4-16.6 3.6c-4.5 2.9-10.9 3.5-14.4 3.1h-.5a13.853 13.853 0 01-3.3-1 6.625 6.625 0 01-2.9-2.6 3.322 3.322 0 01.3-3.7 6.585 6.585 0 01-2.3-3.8z" fill="#263238"/><path id="Pfad_28018" d="M67.5 54.3a7.607 7.607 0 001.2 1.9 2.665 2.665 0 002 .9 2.417 2.417 0 001.9-1.3 3.322 3.322 0 00.3-2.4c-.1-.7-.5-1.6-1.3-1.6a1.613 1.613 0 00-.9.3l-3.7 2" fill="#aa6550"/><path id="Pfad_28019" d="M69.4 57.4a4.552 4.552 0 002-.5 2.775 2.775 0 001.4-1.6 3.1 3.1 0 00-.2-2.5 1 1 0 00-.4-.5c-.2-.1-.1-.1-.3-.1l-.6.3-.6.3-2.1 1.1a7.218 7.218 0 01-2 .9 5.936 5.936 0 011.8-1.3c.6-.4 1.3-.8 2-1.2l.6-.3a4.348 4.348 0 01.7-.4.638.638 0 01.6 0c.2.1.3.2.5.3a1.794 1.794 0 01.5.7 3.725 3.725 0 01.2 3.1 3.253 3.253 0 01-3.5 2z" fill="#263238"/><path id="Pfad_28020" d="M85.4 16.5c0-.5-.1-.9-.1-1.4a5.29 5.29 0 00-2.2-3.1 7.393 7.393 0 00-5.4-1.2A26.329 26.329 0 0071 13c-1.2.5-2.3 1-3.4 1.4a18.728 18.728 0 01-3.4.8 16.179 16.179 0 01-5.8-.2 24.011 24.011 0 01-3.8-1.2 9.25 9.25 0 00-1-.5l-.3-.2s.5.2 1.3.5a16.368 16.368 0 003.8 1 18.845 18.845 0 009.1-.7c1.1-.4 2.2-.9 3.4-1.4a20.109 20.109 0 016.8-2.2 7.391 7.391 0 015.6 1.3 5.438 5.438 0 012.2 3.3 8.084 8.084 0 01-.1 1.6z" fill="#455a64"/><path id="Pfad_28021" d="M96.5 35.3l-.2-.2a4.348 4.348 0 01-.4-.7 13.9 13.9 0 01-1.2-2.8 17.753 17.753 0 01-.8-4.5 33.082 33.082 0 01.5-5.5 11 11 0 00-.5-5.4 6.405 6.405 0 00-1.3-1.9 3.1 3.1 0 00-1.8-.9 4.173 4.173 0 00-2.9.4 5.716 5.716 0 00-.8.7 2.047 2.047 0 01.8-.8 3.579 3.579 0 013-.5 4.351 4.351 0 011.9 1 5.579 5.579 0 011.4 2 10.448 10.448 0 01.6 5.5 34.084 34.084 0 00-.5 5.5 16.186 16.186 0 00.7 4.4 23.289 23.289 0 001.1 2.8c.2.5.4.9.4.9z" fill="#455a64"/><path id="Pfad_28022" d="M86.4 15.4v-.5a5.7 5.7 0 00-.1-1.3 15.208 15.208 0 00-1-4.8A8.692 8.692 0 0083.4 6 6.134 6.134 0 0080 4.3a7.594 7.594 0 00-4.2.6 19.793 19.793 0 00-4 2.3c-1.2.9-2.6 1.8-3.9 2.6a12.1 12.1 0 01-4.2 1.3 13.421 13.421 0 01-4-.1 13.853 13.853 0 01-3.3-1 14.225 14.225 0 01-4.1-2.8c-.3-.3-.6-.7-.9-1a1.38 1.38 0 01-.3-.4l.3.3c.3.3.6.7.9 1a13.9 13.9 0 004.1 2.7 17.826 17.826 0 003.3.9 12.75 12.75 0 003.9 0 12.261 12.261 0 004.1-1.3 26.455 26.455 0 003.9-2.6 15.237 15.237 0 014.1-2.4 8.076 8.076 0 014.3-.6 6.561 6.561 0 013.5 1.8 8.123 8.123 0 011.9 2.9 15.812 15.812 0 011 4.8v2.1z" fill="#455a64"/><path id="Pfad_28023" d="M14.8 324.4L11 358.3l-10.7 26a3.571 3.571 0 001.9 4.6c.1 0 .1.1.2.1a3.338 3.338 0 003.2-.5c5.8-4.3 27.2-20 27.4-22.5.2-2.9 6.4-35.5 6.4-35.5z" fill="#f8b02f"/><g id="Gruppe_1308" transform="translate(2.389 363.698)" opacity=".6"><path id="Pfad_28024" d="M0 25.3L30.8 0l-.2 1.4a5.582 5.582 0 01-1.7 3.2c-2.5 2.2-9.5 8.2-25.7 20.2a3.338 3.338 0 01-3.2.5z" fill="#fff"/></g><g id="Gruppe_1309" transform="translate(26.634 351.654)" opacity=".6"><path id="Pfad_28025" d="M1.1.2a2 2 0 00-.9 2.7 2.019 2.019 0 002.6 1 2.3 2.3 0 001-2.8A2.055 2.055 0 00.9.3" fill="#fff"/></g><path id="Pfad_28026" d="M12.1 375.2c-.2.1-.7-1.8-2.6-3s-3.8-1.1-3.8-1.3.4-.3 1.2-.3a5.389 5.389 0 013 1 5.2 5.2 0 012 2.4c.3.7.3 1.2.2 1.2z" fill="#263238"/><path id="Pfad_28027" d="M9.1 379.5c-.2.1-1.1-1.1-2.8-1.9-1.1-.4-2.1-.6-3.2-.9-.1-.2 1.6-.7 3.6.2s2.6 2.5 2.4 2.6z" fill="#263238"/><path id="Pfad_28028" d="M17.4 370c-.2.1-1.6-1.8-4.1-3.2s-4.8-1.6-4.8-1.8 2.5-.3 5.2 1.2 3.9 3.8 3.7 3.8z" fill="#263238"/><path id="Pfad_28029" d="M19.4 359.8c-.1.2-1.9-.8-4.3-1.2s-4.4-.1-4.5-.3a9.006 9.006 0 018.8 1.5z" fill="#263238"/><path id="Pfad_28030" d="M20.8 349.9c-.1.2-1.9-1.2-4.4-1.4a17.547 17.547 0 00-4.6.5c0-.1.4-.5 1.2-.8a8.279 8.279 0 013.5-.5 7.6 7.6 0 013.3 1.1c.7.6 1 1 1 1.1z" fill="#263238"/><path id="Pfad_28031" d="M16.6 346.6a2.879 2.879 0 01.1-1.3 9.4 9.4 0 011.5-3.2 3.942 3.942 0 011.9-1.7 1.24 1.24 0 011.5.5 2.223 2.223 0 01.3 1.6 5.03 5.03 0 01-4.9 4 5.745 5.745 0 01-5.2-3.7 2.046 2.046 0 01.1-1.7 1.282 1.282 0 011.5-.5 5.956 5.956 0 012.1 1.4 13.671 13.671 0 012 2.9 5.637 5.637 0 01.4 1.2 14.585 14.585 0 00-2.7-3.8 4.394 4.394 0 00-1.8-1.2.67.67 0 00-.8.3 1.083 1.083 0 000 1.1 5.274 5.274 0 004.5 3.2 4.382 4.382 0 004.2-3.3 1.389 1.389 0 00-.2-1.1.67.67 0 00-.8-.3 3.33 3.33 0 00-1.7 1.4 14.806 14.806 0 00-2 4.2z" fill="#263238"/><path id="Pfad_28032" d="M170.5 325.7l-1.1 26s26.1 9.9 26.4 14.7l-50.6-.3v-40.7z" fill="#f8b02f"/><path id="Pfad_28033" d="M153.8 349.4a2.057 2.057 0 00-1.4 2.4 2 2 0 002.3 1.4 2.142 2.142 0 001.5-2.5 2.04 2.04 0 00-2.6-1.2" fill="#e0e0e0"/><g id="Gruppe_1310" transform="translate(145.235 362.02)" opacity=".6"><path id="Pfad_28034" d="M0 4.1L.2 0l48.4 1.8s2.2 1 2 2.6z" fill="#fff"/></g><path id="Pfad_28035" d="M170.3 351.5c0 .3-1.2.4-2.4 1.1s-1.9 1.8-2.1 1.7.1-1.5 1.6-2.4 2.9-.7 2.9-.4z" fill="#263238"/><path id="Pfad_28036" d="M175.5 353.7c.1.2-1 .7-1.9 1.7s-1.1 2.1-1.3 2.1-.4-1.4.7-2.7 2.5-1.3 2.5-1.1z" fill="#263238"/><path id="Pfad_28037" d="M178.6 360.1c-.2 0-.6-1.2.1-2.5s1.8-1.9 1.9-1.7-.6.9-1.1 2a16.672 16.672 0 01-.9 2.2z" fill="#263238"/><path id="Pfad_28038" d="M169.8 345.5c-.1.2-1.2-.1-2.6 0s-2.5.5-2.6.3.9-1.1 2.6-1.2 2.8.7 2.6.9z" fill="#263238"/><path id="Pfad_28039" d="M170 340.2a5.283 5.283 0 01-2.5 0 12.091 12.091 0 01-4.1-1.6c-.3-.2-.5-.4-.8-.6a1.059 1.059 0 01-.1-1.3 1.356 1.356 0 011.1-.6 3.751 3.751 0 011 .1 9.243 9.243 0 013.9 2.1c1.2 1.1 1.6 2 1.5 2.1s-.7-.7-1.9-1.6a10.46 10.46 0 00-2.3-1.3c-.5-.2-1-.3-1.4-.5-.5-.1-1-.2-1.1.1s0 .1 0 .3a2.092 2.092 0 00.6.4c.4.3.9.5 1.3.8a24.425 24.425 0 002.4 1c.7.2 1.6.4 2.4.6z" fill="#263238"/><path id="Pfad_28040" d="M169.6 340.6a4.2 4.2 0 01-.7-2.4 9.034 9.034 0 01.4-2.8 10.092 10.092 0 01.7-1.5 2.107 2.107 0 011.6-1.3 1.23 1.23 0 011.1.7l.3.9a4.854 4.854 0 010 1.7 5.409 5.409 0 01-1.1 2.6c-1 1.3-2 1.6-2.1 1.5a11.92 11.92 0 001.5-1.8 6.806 6.806 0 00.8-2.4 3.787 3.787 0 000-1.5c-.1-.5-.3-1-.5-.9a2.361 2.361 0 00-.9.8 3.506 3.506 0 00-.6 1.4 7.418 7.418 0 00-.5 2.5c-.1 1.5.2 2.5 0 2.5z" fill="#263238"/><path id="Pfad_28041" d="M6.9 337.6l6.9-111.2c1.2-17 4-24.7 17.7-31.5l5.9-4.1 60.9-5.6L102 226l-47.5 10.6L42 343.2z" fill="#263238"/><path id="Pfad_28042" d="M102 226l30.4 12.5 6.6 96.8 39.3-4.8-2.4-104.7a27.574 27.574 0 00-9.7-20.3L138.7 182l-40.5 3.3-2.9 42.2z" fill="#263238"/><path id="Pfad_28043" d="M55.7 222.9a105.418 105.418 0 01-.8 11.3 109.306 109.306 0 01-1.5 11.3 105.4 105.4 0 01.9-11.3 85.083 85.083 0 011.4-11.3z" fill="#455a64"/><path id="Pfad_28044" d="M49.8 205.4l-.3.2-1 .6-3.8 2.2-14.2 7.8.1-.2c-.7 12.9-1.6 30.5-2.6 49.9-1 19.9-2.1 37.9-2.9 50.9-.4 6.5-.8 11.7-1.1 15.4-.1 1.8-.3 3.2-.3 4.2l-.1 1.1a.756.756 0 01-.1.4v-1.5c0-1 .1-2.4.2-4.2.2-3.7.5-8.9.9-15.4.7-13.1 1.7-31 2.7-50.9 1-19.4 2-37 2.7-49.8v-.1l.1-.1c6-3.2 10.9-5.8 14.3-7.7l3.9-2.1 1-.5z" fill="#455a64"/><path id="Pfad_28045" d="M130.9 218.4a70.53 70.53 0 011.1 10.3 88.8 88.8 0 01.5 10.3 70.53 70.53 0 01-1.1-10.3 88.8 88.8 0 01-.5-10.3z" fill="#455a64"/><path id="Pfad_28046" d="M132.3 238.5a29.525 29.525 0 01-2.4-5.8 32.16 32.16 0 01-1.9-6 32.276 32.276 0 012.4 5.8 24.686 24.686 0 011.9 6z" fill="#455a64"/><path id="Pfad_28047" d="M130.2 199.9a2.186 2.186 0 01.5.3l1.5 1 5.8 3.6 20.8 13.3.1.1v.1c.3 11.5.7 25.3 1.1 40.1.5 20.5.9 39 1.2 52.4.1 6.7.2 12.1.2 15.9v4.3c0-1-.1-2.5-.1-4.3-.1-3.8-.3-9.2-.4-15.9-.3-13.5-.8-32-1.4-52.4-.4-14.8-.7-28.6-1-40.1l.1.2-20.5-13.5-5.7-3.8-1.5-1a4.873 4.873 0 01-.7-.3z" fill="#455a64"/><path id="Pfad_28048" d="M98.1 221.5a14.463 14.463 0 012.1 2.2 7.821 7.821 0 011.7 2.6c-.1.1-1.1-.8-2.2-2.2s-1.8-2.5-1.6-2.6z" fill="#455a64"/><path id="Pfad_28049" d="M98.1 221.5a50.041 50.041 0 01-.8-8.6 50.593 50.593 0 01-.2-8.7 50.041 50.041 0 01.8 8.6 50.594 50.594 0 01.2 8.7z" fill="#455a64"/><path id="Pfad_28050" d="M56.9 231.1c0 .2-.3.4-.8.5s-.9.1-1-.1.3-.4.8-.5.9-.1 1 .1z" fill="#455a64"/><path id="Pfad_28051" d="M63.9 229.4c0 .2-.7.5-1.7.7s-1.8.3-1.8.1.7-.5 1.7-.7 1.8-.3 1.8-.1z" fill="#455a64"/><path id="Pfad_28052" d="M71 227.6c0 .2-.7.5-1.7.7s-1.8.3-1.8.1.7-.5 1.7-.7a3.773 3.773 0 011.8-.1z" fill="#455a64"/><path id="Pfad_28053" d="M78 225.9c0 .2-.7.5-1.7.7s-1.8.3-1.8.1.7-.5 1.7-.7a3.713 3.713 0 011.8-.1z" fill="#455a64"/><path id="Pfad_28054" d="M85.1 224.2c0 .2-.7.5-1.7.7s-1.8.3-1.8.1.7-.5 1.7-.7 1.7-.3 1.8-.1z" fill="#455a64"/><path id="Pfad_28055" d="M92.1 222.5c0 .2-.7.5-1.7.7s-1.8.3-1.8.1.7-.5 1.7-.7 1.8-.3 1.8-.1z" fill="#455a64"/><path id="Pfad_28056" d="M97.4 221.2c0 .2-.3.4-.8.5s-.9.1-1-.1.3-.4.8-.5 1-.1 1 .1z" fill="#455a64"/><path id="Pfad_28057" d="M100.3 221.6c0 .2-.5.2-1 .1a1.054 1.054 0 01-.8-.5c0-.1.5-.2 1-.1a1.054 1.054 0 01.8.5z" fill="#455a64"/><path id="Pfad_28058" d="M107 223.7c0 .2-.8 0-1.8-.2a2.61 2.61 0 01-1.6-.8 3.182 3.182 0 011.8.2c1 .3 1.7.6 1.6.8z" fill="#455a64"/><path id="Pfad_28059" d="M113.6 226.1c0 .2-.8 0-1.7-.3s-1.6-.7-1.5-.9.8 0 1.7.3 1.5.7 1.5.9z" fill="#455a64"/><path id="Pfad_28060" d="M120 228.8c-.1.2-.8 0-1.7-.4s-1.5-.8-1.5-1 .8 0 1.7.4 1.6.9 1.5 1z" fill="#455a64"/><path id="Pfad_28061" d="M126.2 232c-.1.1-.8-.1-1.7-.5s-1.5-.9-1.4-1.1.8.1 1.7.5 1.5.9 1.4 1.1z" fill="#455a64"/><path id="Pfad_28062" d="M130.9 234.6c-.1.1-.5.1-.9-.2s-.7-.6-.6-.7.5-.1.9.2a1.49 1.49 0 01.6.7z" fill="#455a64"/><path id="Pfad_28063" d="M95.8 79.9s-8.3 38.6-1.9 54.6 31.2 48.6 31.2 48.6L144 182s-6.8-99.6-8.5-101.6-38.4-12.6-38.4-12.6z" fill="#f8b02f"/><path id="Pfad_28064" d="M120.6 204s43.9-15.8 47.5-24.7c8.6-21.5-22.6-94.6-32.5-98.9s-15.7 18.9-14 25.6c6.3 25.6 18.7 52.1 18.7 52.1l-29.6 19.1z" fill="#f8b02f"/><path id="Pfad_28065" d="M71 107.2c-1.9-7.7-5-30-5-30L43.5 89c-4 3-13.1 13.4-13.1 25.2 0 21.4 3 70 7 76.7 4.8 8.1 25.3 20.5 25.3 20.5L77 189.2l-5.9-4.7c3.5-7 11.4-22.8 12.3-28.1 1.2-6.7-10.9-42.9-12.4-49.2z" fill="#f8b02f"/><path id="Pfad_28066" d="M121.1 112.3a5.937 5.937 0 01.4.8c.3.6.6 1.4 1 2.3.8 2.1 2 5 3.5 8.5 2.9 7.2 6.9 17.1 11.2 28.1 1.1 2.8 2.2 5.4 3.2 8l.1.3-.2.1-21.1 12.2-6.2 3.5a14.679 14.679 0 01-1.7.9l-.6.3c.2-.1.4-.3.6-.4l1.6-1 6.1-3.7 21-12.3-.1.4c-1-2.6-2.1-5.3-3.2-8-4.3-11-8.2-20.9-11.1-28.1-1.4-3.6-2.5-6.5-3.3-8.6a22.314 22.314 0 00-.9-2.3 4.052 4.052 0 00-.3-1z" fill="#263238"/><path id="Pfad_28067" d="M152.4 167.3a7.965 7.965 0 01-1.5-1.7 20.1 20.1 0 00-3.9-3.8 9.224 9.224 0 00-5-1.8c-1.4-.1-2.2.3-2.3.1a4.645 4.645 0 012.3-.6 8.987 8.987 0 015.4 1.8 16.94 16.94 0 013.9 4.1 8.622 8.622 0 011.1 1.9z" fill="#263238"/><path id="Pfad_28068" d="M134.1 80c-1.2.6-2.5 1.2-3.6 1.9a20.137 20.137 0 00-6.3 7.3 42.031 42.031 0 00-3.3 9.2c-.3 1.3-.7 2.7-1.1 3.9a4.1 4.1 0 01.1-1.1c.1-.7.3-1.7.6-2.9a38.645 38.645 0 013.2-9.4 18.859 18.859 0 016.6-7.4 16.637 16.637 0 012.7-1.3 5.16 5.16 0 011.1-.2z" fill="#263238"/><path id="Pfad_28069" d="M60.4 171.7c-.1-.2-.2-.3-.2-.5-.1-.4-.3-.9-.5-1.5-.4-1.5-1.1-3.4-1.8-5.8-1.5-4.8-3.5-11.6-5.6-19s-4.1-14.2-5.5-19.1c-.7-2.4-1.2-4.3-1.6-5.8-.2-.6-.3-1.2-.4-1.6a1.268 1.268 0 01-.1-.6c.1.2.2.3.2.5l.5 1.6 1.8 5.7c1.5 4.8 3.5 11.6 5.7 19s4.1 14.2 5.5 19.1c.7 2.4 1.2 4.3 1.6 5.8.2.6.3 1.2.4 1.6-.1.2 0 .4 0 .6z" fill="#263238"/><path id="Pfad_28070" d="M60.5 80.1a2.769 2.769 0 01.1.9c.1.6.2 1.5.3 2.5.2 2.3.5 5.4.9 9.2.7 7.9 1.7 18.6 2.8 30.4.2 2.1.4 4.2.6 6.2l-.1-.2L72 133l.3.2-.3.3-4 4 .1-.3a36.1 36.1 0 002.3 4.4 30.866 30.866 0 002.6 3.7c1.5 1.9 3.1 3.8 4.8 5.6l3.3 3.5.9.9.3.3-.3-.3-.9-.9c-.8-.8-2-1.9-3.4-3.4-1.7-1.8-3.4-3.6-4.9-5.5-.9-1.2-1.8-2.4-2.6-3.7a47.293 47.293 0 01-2.3-4.5l-.1-.2.1-.1 4-4.1.1.5-6.9-3.9-.1-.1v-.2c-.2-2-.4-4.1-.7-6.2-1.1-11.9-2-22.7-2.7-30.5-.3-3.8-.5-7-.7-9.2-.1-1-.1-1.9-.2-2.5-.2-.1-.2-.4-.2-.7z" fill="#263238"/><path id="Pfad_28071" d="M81.9 184.7l-11-14.7-26.3 4-.6 1.7 27.8 33.7 23.8-4.6z" fill="#455a64"/><path id="Pfad_28072" d="M81.4 186.4l-11-14.7-26.4 4 27.2 35.4 23-4.7 1.4-1.6z" fill="#455a64"/><path id="Pfad_28073" d="M59.5 180.4a1.234 1.234 0 001.8-.5 1.321 1.321 0 10-2.3-1.3 1.252 1.252 0 00.5 1.8z" fill="#ebebeb"/><path id="Pfad_28074" d="M112 180.8l-9.9 2.7a14.549 14.549 0 00-12.1-3.7l-3.6.5-2.1 3.2s-17.7 3.4-18 5.7l.1.7v.4l15.4-1.2s-12.9 1.9-13.7 2-3.6.3-3.4 1.8c.2 1.2 1.9 2 4.2 2 .9 0 12.3-.7 12.3-.7L68.7 196c-1.4.2-.9 2.4 0 2.5s17.2 2.4 17.2 2.4a9.145 9.145 0 01-4.6 2.3c-2.2.2-6.3-2.1-6.9-.6s-.3 2.2.2 2.4a50.152 50.152 0 007.8 2.3c1.8.2 18.6-4.3 18.6-4.3l17.9-3.2z" fill="#b78876"/><path id="Pfad_28075" d="M48.4 181.4s-2.4 1.4-.4 4.7a31.125 31.125 0 006.9 8 3.124 3.124 0 001.6 3s-1.9.8-.2 3.9a3.758 3.758 0 002.8 4.5h.2s-.6 2.9 3.2 3.8a8.516 8.516 0 006.8-2z" fill="#b78876"/><path id="Pfad_28076" d="M56.2 193.6a68.2 68.2 0 017.9 1c.8.2 1.6.1 2.2.6a1.851 1.851 0 01.4 2.2 2.372 2.372 0 01-2 .7 37.4 37.4 0 01-8.1-1" fill="#b78876"/><path id="Pfad_28077" d="M57.8 197.6a68.2 68.2 0 017.9 1c.8.2 1.6.1 2.2.6a1.7 1.7 0 01.4 2.2 2.372 2.372 0 01-2 .7 37.4 37.4 0 01-8.1-1" fill="#b78876"/><path id="Pfad_28078" d="M59.8 201.7a68.2 68.2 0 017.9 1c.8.2 1.6.1 2.2.6a1.851 1.851 0 01.4 2.2 2.372 2.372 0 01-2 .7 37.4 37.4 0 01-8.1-1" fill="#b78876"/><path id="Pfad_28079" d="M56.7 197.2a39.489 39.489 0 014.2.5c2.3.3 4.2.4 4.2.5a19.672 19.672 0 01-4.2-.1 14.278 14.278 0 01-4.2-.9z" fill="#aa6550"/><path id="Pfad_28080" d="M56.8 201c0-.1 2.1.3 4.8.6a39.669 39.669 0 014.8.7 19.387 19.387 0 01-4.8-.3 24.01 24.01 0 01-4.8-1z" fill="#aa6550"/><path id="Pfad_28081" d="M59.1 205.5a21.308 21.308 0 014.4.2 33.208 33.208 0 014.4.6 21.308 21.308 0 01-4.4-.2 33.208 33.208 0 01-4.4-.6z" fill="#aa6550"/><path id="Pfad_28082" d="M54 193.4c0-.1 2.3.3 5.2.6s5.3.4 5.3.5a8.082 8.082 0 01-1.6.1 36.457 36.457 0 01-7.4-.8 4.19 4.19 0 01-1.5-.4z" fill="#b78876"/><path id="Pfad_28083" d="M78.3 184.6a61.765 61.765 0 016.2-1.2c2.1-.4 4.2-.6 6.3-.8a61.765 61.765 0 01-6.2 1.2 45.228 45.228 0 01-6.3.8z" fill="#aa6550"/><path id="Pfad_28084" d="M79.3 183.7a6.407 6.407 0 01-.7-.9l-1.8-2.4c-1.6-2.2-3.8-5.1-6.2-8.5h.1l-6 .9-14.5 2.1-4.4.6-1.2.1h-.4l.4-.1 1.2-.2 4.4-.7 14.5-2.2 6-.9h.1c2.4 3.4 4.6 6.3 6.2 8.5l1.8 2.5c.3.8.5 1.2.5 1.2z" fill="#263238"/><g id="Gruppe_1311" transform="translate(117.458 119.43)" opacity=".3"><path id="Pfad_28085" d="M0 53.5c.6-2.9 2.5-4.6 5.3-5.8s5.8-2.2 7.4-4.7c2-3.2.9-7.2 0-10.9C10.9 25 6.4 7.3 6.9 0l15.7 40.7z"/></g><g id="Gruppe_1312" transform="translate(97.193 103.875)" opacity=".3"><path id="Pfad_28086" d="M14.6 61a5.566 5.566 0 001.4-4.1 20.415 20.415 0 00-.8-4.3c-1.4-5.4-1.7-11-2.2-16.5-.4-4.5-1-8.3-.9-8l-5.8-3a12.776 12.776 0 003.2-2.4s-1.2-3.9-1.4-5.1C8 17.5 5.4 4.2 4.7 0L5 18.7l-5 7.8 8 2.8 5.3 29.5z"/></g><path id="Pfad_28087" d="M110.6 163c-.1-.2-.2-.3-.2-.5-.1-.4-.3-.9-.5-1.6a32.545 32.545 0 01-1.3-6.2c-.4-2.7-.7-5.9-1.1-9.7-.3-1.9-.6-3.9-1.1-5.8l-.9-3-1-3.2.1.1a7.973 7.973 0 00-1.6-.8l-1.8-.6a36.355 36.355 0 00-3.9-1.1l-.4-.1.2-.4 5-7.8v.1c0-1 .1-2.1.2-3.2.2-7-.4-13.7-.7-19.8a109.506 109.506 0 01-.1-16.2 43.818 43.818 0 012-10.8 7.579 7.579 0 01.6-1.6 6.117 6.117 0 00.5-1.2c.1-.3.3-.6.4-.9-.1.3-.2.7-.3 1a8.338 8.338 0 00-.4 1.2 9.83 9.83 0 00-.5 1.6 48.87 48.87 0 00-1.8 10.7 109.556 109.556 0 00.3 16.2c.4 6 1 12.8.8 19.9 0 1.1-.1 2.2-.2 3.2v.1c-1.7 2.7-3.4 5.3-5 7.8l-.2-.5 3.9 1.2c.6.2 1.2.4 1.9.6a6.079 6.079 0 011.8.9v.1c.3 1.1.7 2.1 1 3.2a18.117 18.117 0 01.9 3.1c.5 1.9.8 3.9 1.1 5.8.5 3.7.7 7 1 9.7.3 2.1.7 4.1 1.2 6.2.2.7.4 1.2.5 1.6a.616.616 0 00-.4.7z" fill="#263238"/><path id="Pfad_28088" d="M100.8 155.2a4.869 4.869 0 01.1 1.2 19.529 19.529 0 01-.3 3.4A20.613 20.613 0 0186.3 176a19.422 19.422 0 01-3.3.7 2.437 2.437 0 01-1.2 0 32.921 32.921 0 004.5-1.2 21.547 21.547 0 0014-15.8c.5-2.7.4-4.5.5-4.5z" fill="#263238"/></g><g id="Gruppe_1313" transform="translate(383.741 249.034)"><path id="Pfad_28089" d="M.1 0h1l2 5L5 0h1v6h-.8V1s-.2.5-.3.8L3.3 6h-.6L1 1.8c-.1-.3-.2-.7-.2-.7v5H.1z"/><path id="Pfad_28090" d="M6.9 7.4v-.6a.749.749 0 00.5.1c.3 0 .5-.1.7-.5l.2-.4-1.8-4.3h.7l1 2.7a8.492 8.492 0 00.3.9 8.492 8.492 0 00.3-.9l1-2.7h.7L8.8 6.4c-.4.9-.7 1.1-1.3 1.1a1.268 1.268 0 01-.6-.1z"/><path id="Pfad_28091" d="M12.2 3.9a2.138 2.138 0 012-2.3h.2a1.831 1.831 0 011.9 1.5h-.7a1.188 1.188 0 00-1.2-1A1.512 1.512 0 0013 3.8a1.512 1.512 0 001.4 1.7 1.108 1.108 0 001.2-1v-.1h.7a1.752 1.752 0 01-1.7 1.7h-.1A2.112 2.112 0 0112.4 4c-.2 0-.2-.1-.2-.1z"/><path id="Pfad_28092" d="M16.6 3.9a2.11 2.11 0 114.2.4 2.077 2.077 0 01-2.1 1.9 2.112 2.112 0 01-2.1-2.1v-.2zm3.5 0c0-1-.5-1.7-1.4-1.7a1.512 1.512 0 00-1.4 1.7 1.512 1.512 0 001.4 1.7 1.512 1.512 0 001.4-1.7z"/><path id="Pfad_28093" d="M21.5 0h.7v6h-.7z"/><path id="Pfad_28094" d="M23.2 0h.7v6h-.7z"/><path id="Pfad_28095" d="M24.6 3.9a2.138 2.138 0 012-2.3h.1c1.3 0 2 1 2 2.5h-3.4c.1.9.5 1.6 1.4 1.6a1.033 1.033 0 001.2-.9h.7a1.927 1.927 0 01-1.9 1.5 2.051 2.051 0 01-2.1-2.1v-.3zm.7-.4h2.6a1.238 1.238 0 00-1.3-1.4 1.416 1.416 0 00-1.3 1.4z"/><path id="Pfad_28096" d="M32 5.4a1.8 1.8 0 01-1.5.7c-.8 0-1.5-.4-1.5-1.2 0-1 .8-1.2 1.9-1.4.6-.1 1-.2 1-.6 0-.5-.4-.8-1-.8-.7 0-1.1.3-1.1 1h-.7a1.531 1.531 0 011.7-1.5c.9 0 1.6.3 1.6 1.4v2.1c0 .4.1.5.5.5V6c-.1 0-.2.1-.4.1-.1 0-.4-.2-.5-.7zm0-1v-.7a1.689 1.689 0 01-1 .3c-.7.1-1.2.2-1.2.9 0 .6.5.7.9.7A1.13 1.13 0 0032 4.4z"/><path id="Pfad_28097" d="M33.6 6.3h.6c.1.5.5.7 1.2.7.8 0 1.3-.4 1.3-1.1v-.7a1.709 1.709 0 01-1.3.7 1.923 1.923 0 01-1.9-2v-.2a1.851 1.851 0 011.7-2.1h.2a1.457 1.457 0 011.3.7v-.6h.7v4.1c0 1.2-.8 1.7-1.9 1.7-1.2 0-1.9-.5-1.9-1.2zm3.1-2.6c0-1-.4-1.5-1.3-1.5-.8 0-1.2.6-1.2 1.6s.4 1.6 1.2 1.6c1-.1 1.3-.8 1.3-1.7z"/><path id="Pfad_28098" d="M41 6v-.6a1.709 1.709 0 01-1.3.7 1.418 1.418 0 01-1.5-1.2V1.7h.7v3a.817.817 0 00.8.9h.2A1.11 1.11 0 0041 4.5V1.7h.7v4.4z"/><path id="Pfad_28099" d="M42.4 3.9a2.138 2.138 0 012-2.3h.1c1.3 0 2 1 2 2.5h-3.4c.1.9.5 1.6 1.4 1.6a1.033 1.033 0 001.2-.9h.7a1.927 1.927 0 01-1.9 1.5 2.051 2.051 0 01-2.1-2.1zm.7-.4h2.6a1.238 1.238 0 00-1.3-1.4 1.416 1.416 0 00-1.3 1.4z"/><path id="Pfad_28100" d="M48.3 3.9a2.138 2.138 0 012-2.3h.2a1.831 1.831 0 011.9 1.5h-.7a1.188 1.188 0 00-1.2-1 1.512 1.512 0 00-1.4 1.7 1.512 1.512 0 001.4 1.7 1.108 1.108 0 001.2-1v-.1h.7a1.752 1.752 0 01-1.7 1.7h-.1A2.112 2.112 0 0148.5 4c-.3 0-.3-.1-.2-.1z"/><path id="Pfad_28101" d="M55.7 5.4a1.8 1.8 0 01-1.5.7c-.8 0-1.5-.4-1.5-1.2 0-1 .8-1.2 1.9-1.4.6-.1 1-.2 1-.6 0-.5-.4-.8-1-.8-.7 0-1.1.3-1.1 1h-.7a1.531 1.531 0 011.7-1.5c.9 0 1.6.3 1.6 1.4v2.1c0 .4.1.5.5.5V6c-.1 0-.2.1-.4.1s-.5-.2-.5-.7zm0-1v-.7a1.929 1.929 0 01-1 .3c-.7.1-1.2.2-1.2.9 0 .6.5.7.9.7a1.223 1.223 0 001.3-1.2z"/><path id="Pfad_28102" d="M58 2.2a1.91 1.91 0 011.4-.7 1.341 1.341 0 011.5 1.1V6h-.7V3c0-.6-.4-.9-1-.9A1.2 1.2 0 0058 3.2V6h-.7V1.7h.7z"/><path id="Pfad_28103" d="M62.1.8a.737.737 0 01-.7.9v-.2c.2-.1.3-.2.3-.6h-.3V0h.7z"/><path id="Pfad_28104" d="M62.7 1.7h.6V.3h.7v1.4h.8v.6H64v2.8a.366.366 0 00.4.4.756.756 0 00.4-.1V6a4.331 4.331 0 00-.5.1c-.6 0-1-.2-1-.8v-3h-.6z"/><path id="Pfad_28105" d="M0 10.1h.7v6H0z"/><path id="Pfad_28106" d="M1.4 14a2.061 2.061 0 012.3-1.9 2.1 2.1 0 01-.2 4.2 2.112 2.112 0 01-2.1-2.1V14zm3.5 0c0-1-.5-1.7-1.4-1.7S2.1 13 2.1 14s.5 1.7 1.4 1.7S4.9 15 4.9 14z"/><path id="Pfad_28107" d="M6.2 16.4h.6c.1.5.5.7 1.2.7.8 0 1.3-.4 1.3-1.1v-.6A1.371 1.371 0 018 16a2.006 2.006 0 01-2-2v-.2a1.851 1.851 0 011.7-2.1h.2a1.457 1.457 0 011.3.7v-.6h.8V16c0 1.2-.8 1.7-1.9 1.7-1.2-.1-1.8-.5-1.9-1.3zm3.1-2.6c0-1-.4-1.5-1.3-1.5-.8 0-1.2.6-1.2 1.6s.4 1.6 1.2 1.6c1 0 1.3-.7 1.3-1.7z"/><path id="Pfad_28108" d="M12.2 10.1h.7v.9h-.7zm0 1.7h.7v4.4h-.7z"/><path id="Pfad_28109" d="M14.5 12.4a1.91 1.91 0 011.4-.7 1.341 1.341 0 011.5 1.1v3.4h-.7v-3c0-.6-.4-.9-1-.9a1.2 1.2 0 00-1.2 1.1v2.8h-.7v-4.4h.7z"/><path id="Pfad_28110" d="M18.2 15.4h.8v.8h-.8z"/></g><g id="Gruppe_1314" transform="translate(397.699 365.254)"><path id="Pfad_28111" d="M.1 0h1l2 5L5 0h1v6h-.7V1s-.2.5-.3.8L3.3 6h-.6L1.1 1.8a6.659 6.659 0 00-.3-.7v5H.1z"/><path id="Pfad_28112" d="M7 0h.7v.8H7zm0 1.7h.7V6H7z"/><path id="Pfad_28113" d="M7.9 7.3v-.6h.2c.3 0 .4-.1.4-.4V1.7h.7v4.7c0 .8-.4 1-1 1 0-.1-.1-.1-.3-.1zM8.6 0h.7v.8h-.7z"/><path id="Pfad_28114" d="M10.9 2.2a1.91 1.91 0 011.4-.7 1.341 1.341 0 011.5 1.1V6h-.7V3c0-.6-.4-.9-1-.9a1.2 1.2 0 00-1.2 1.1V6h-.7V1.7h.7z"/><path id="Pfad_28115" d="M15.8 3.9a2.138 2.138 0 012-2.3h.2a1.831 1.831 0 011.9 1.5h-.7a1.188 1.188 0 00-1.2-1 1.512 1.512 0 00-1.4 1.7A1.512 1.512 0 0018 5.5a1.108 1.108 0 001.2-1v-.1h.7a1.752 1.752 0 01-1.7 1.7h-.1A2.112 2.112 0 0116 4c-.2 0-.2-.1-.2-.1z"/><path id="Pfad_28116" d="M20.2 3.9a2.11 2.11 0 114.2.4 2.077 2.077 0 01-2.1 1.9 2.112 2.112 0 01-2.1-2.1v-.2zm3.5 0c0-1-.5-1.7-1.4-1.7a1.512 1.512 0 00-1.4 1.7 1.426 1.426 0 102.8 0z"/><path id="Pfad_28117" d="M25.1 0h.7v6h-.7z"/><path id="Pfad_28118" d="M26.8 0h.7v6h-.7z"/><path id="Pfad_28119" d="M28.2 3.9a2.138 2.138 0 012-2.3h.1c1.3 0 2 1 2 2.5h-3.4c.1.9.5 1.6 1.4 1.6a1.033 1.033 0 001.2-.9h.7a1.927 1.927 0 01-1.9 1.5 2.051 2.051 0 01-2.1-2.1v-.3zm.7-.4h2.6a1.238 1.238 0 00-1.3-1.4c-.8 0-1.2.6-1.3 1.4z"/><path id="Pfad_28120" d="M32.8 6.3h.6c.1.5.6.7 1.3.7.8 0 1.3-.4 1.3-1.1v-.7a1.709 1.709 0 01-1.3.7 1.923 1.923 0 01-1.9-2v-.2a1.851 1.851 0 011.7-2.1h.2a1.457 1.457 0 011.3.7v-.6h.7v4.1c0 1.2-.8 1.7-1.9 1.7-1.3 0-1.9-.5-2-1.2zM36 3.7c0-1-.4-1.5-1.3-1.5-.8 0-1.2.6-1.2 1.6s.4 1.6 1.2 1.6A1.5 1.5 0 0036 3.7z"/><path id="Pfad_28121" d="M40.2 5.4a1.8 1.8 0 01-1.5.7c-.8 0-1.5-.4-1.5-1.2 0-1 .8-1.2 1.9-1.4.6-.1 1-.2 1-.6 0-.5-.4-.8-1-.8-.7 0-1.1.3-1.1 1h-.7A1.531 1.531 0 0139 1.6c.9 0 1.6.3 1.6 1.4v2.1c0 .4.1.5.5.5V6c-.1 0-.2.1-.4.1-.1 0-.4-.2-.5-.7zm0-1v-.7a1.929 1.929 0 01-1 .3c-.7.1-1.2.3-1.2.9s.5.7.9.7a1.13 1.13 0 001.3-1.2z"/><path id="Pfad_28122" d="M44.5 3.7l-.6.6V6h-.7V0h.7v3.5l1.9-1.9h.9L45 3.2 46.9 6h-.8z"/><path id="Pfad_28123" d="M49.9 5.4a1.8 1.8 0 01-1.5.7c-.8 0-1.5-.4-1.5-1.2 0-1 .8-1.2 1.9-1.4.6-.1 1-.2 1-.6 0-.5-.4-.8-1-.8-.7 0-1.1.3-1.1 1H47a1.531 1.531 0 011.7-1.5c.9 0 1.6.3 1.6 1.4v2.1c0 .4.1.5.5.5V6c-.1 0-.2.1-.4.1-.1 0-.4-.2-.5-.7zm0-1v-.7a1.929 1.929 0 01-1 .3c-.7.1-1.2.2-1.2.9 0 .6.5.7.9.7a1.13 1.13 0 001.3-1.2z"/><path id="Pfad_28124" d="M52.2 2.2a1.91 1.91 0 011.4-.7 1.433 1.433 0 011.5 1.2V6h-.7V3c0-.6-.4-.9-1-.9a1.2 1.2 0 00-1.2 1.1V6h-.7V1.7h.7z"/><path id="Pfad_28125" d="M58 2.2a1.91 1.91 0 011.4-.7 1.341 1.341 0 011.5 1.1V6h-.7V3c0-.6-.4-.9-1-.9A1.2 1.2 0 0058 3.2V6h-.7V1.7h.7z"/><path id="Pfad_28126" d="M61.8 0h.7v.8h-.7zm0 1.7h.7V6h-.7z"/><path id="Pfad_28127" d="M63.2 3.9a2.138 2.138 0 012-2.3h.1c1.3 0 2 1 2 2.5h-3.4c.1.9.5 1.6 1.4 1.6a1.033 1.033 0 001.2-.9h.7a1.927 1.927 0 01-1.9 1.5 2.051 2.051 0 01-2.1-2.1v-.3zm.7-.4h2.6a1.238 1.238 0 00-1.3-1.4c-.8 0-1.2.6-1.3 1.4z"/><path id="Pfad_28128" d="M67.6 1.7h.6V.3h.7v1.4h.8v.6h-.8v2.8a.366.366 0 00.4.4.756.756 0 00.4-.1V6a4.331 4.331 0 00-.5.1c-.6 0-1-.2-1-.8v-3h-.6z"/><path id="Pfad_28129" d="M0 10.1h.7v.9H0zm0 1.7h.7v4.4H0z"/><path id="Pfad_28130" d="M2.3 12.4a1.91 1.91 0 011.4-.7 1.341 1.341 0 011.5 1.1v3.4h-.7v-3c0-.6-.4-.9-1-.9a1.2 1.2 0 00-1.2 1.1v2.8h-.7v-4.4h.7z"/><path id="Pfad_28131" d="M6.1 10.1h.7v6h-.7z"/><path id="Pfad_28132" d="M7.5 14a2.061 2.061 0 012.3-1.9 2.1 2.1 0 01-.2 4.2 2.112 2.112 0 01-2.1-2.1V14zm3.5 0c0-1-.5-1.7-1.4-1.7S8.2 13 8.2 14s.5 1.7 1.4 1.7S11 15 11 14z"/><path id="Pfad_28133" d="M12.3 16.4h.6c.1.5.5.7 1.2.7.8 0 1.3-.4 1.3-1.1v-.6a1.709 1.709 0 01-1.3.7 1.923 1.923 0 01-1.9-2v-.2a1.851 1.851 0 011.7-2.1h.2a1.457 1.457 0 011.3.7v-.6h.7V16c0 1.2-.8 1.7-1.9 1.7-1.2-.1-1.8-.5-1.9-1.3zm3.1-2.6c0-1-.4-1.5-1.3-1.5-.8 0-1.2.6-1.2 1.6s.4 1.6 1.2 1.6c1 0 1.3-.7 1.3-1.7z"/><path id="Pfad_28134" d="M16.9 16.4h.6c.1.5.5.7 1.2.7.8 0 1.3-.4 1.3-1.1v-.6a1.709 1.709 0 01-1.3.7 1.923 1.923 0 01-1.9-2v-.2a1.851 1.851 0 011.7-2.1h.2a1.457 1.457 0 011.3.7v-.6h.7V16c0 1.2-.8 1.7-1.9 1.7-1.2-.1-1.8-.5-1.9-1.3zm3.1-2.6c0-1-.4-1.5-1.3-1.5-.8 0-1.2.6-1.2 1.6s.4 1.6 1.2 1.6c1 0 1.3-.7 1.3-1.7z"/><path id="Pfad_28135" d="M21.3 14a2.138 2.138 0 012-2.3h.1c1.3 0 2 1 2 2.5H22c.1.9.5 1.6 1.4 1.6a1.033 1.033 0 001.2-.9h.7a1.927 1.927 0 01-1.9 1.5 2.051 2.051 0 01-2.1-2.1V14zm.8-.3h2.6a1.238 1.238 0 00-1.3-1.4c-.8 0-1.2.6-1.3 1.4z"/><path id="Pfad_28136" d="M26.8 12.4a1.91 1.91 0 011.4-.7 1.341 1.341 0 011.5 1.1v3.4H29v-3c0-.6-.4-.9-1-.9a1.2 1.2 0 00-1.2 1.1v2.8h-.7v-4.4h.7z"/><path id="Pfad_28137" d="M30.5 15.4h.8v.8h-.8z"/></g><g id="Gruppe_1315" transform="translate(383.631 421.553)"><path id="Pfad_28138" d="M.1 0h1l2 5L5 0h1v6h-.7V1s-.2.5-.3.8L3.3 6h-.6L1.1 1.8a6.659 6.659 0 00-.3-.7v5H.1z"/><path id="Pfad_28139" d="M7 0h.7v.8H7zm0 1.7h.7V6H7z"/><path id="Pfad_28140" d="M9.7 3.9a2.138 2.138 0 012-2.3h.2a1.831 1.831 0 011.9 1.5H13a1.188 1.188 0 00-1.2-1 1.512 1.512 0 00-1.4 1.7 1.512 1.512 0 001.4 1.7 1.108 1.108 0 001.2-1v-.1h.7A1.752 1.752 0 0112 6.1h-.1A2.112 2.112 0 019.8 4a.1.1 0 01-.1-.1z"/><path id="Pfad_28141" d="M14.1 3.9a2.11 2.11 0 114.2.4 2.077 2.077 0 01-2.1 1.9 2.112 2.112 0 01-2.1-2.1v-.2zm3.5 0c0-1-.5-1.7-1.4-1.7a1.512 1.512 0 00-1.4 1.7 1.512 1.512 0 001.4 1.7c1 0 1.4-.8 1.4-1.7z"/><path id="Pfad_28142" d="M19 0h.7v6H19z"/><path id="Pfad_28143" d="M20.4 3.9a2.138 2.138 0 012-2.3h.1c1.3 0 2 1 2 2.5h-3.4c.1.9.5 1.6 1.4 1.6a1.033 1.033 0 001.2-.9h.7a1.927 1.927 0 01-1.9 1.5 2.051 2.051 0 01-2.1-2.1v-.3zm.8-.4h2.6a1.238 1.238 0 00-1.3-1.4c-.8 0-1.2.6-1.3 1.4z"/><path id="Pfad_28144" d="M25.1 6.3h.6c.1.5.5.7 1.2.7.8 0 1.3-.4 1.3-1.1v-.7a1.709 1.709 0 01-1.3.7 1.923 1.923 0 01-1.9-2v-.2a1.851 1.851 0 011.7-2.1h.2a1.457 1.457 0 011.3.7v-.6h.7v4.1c0 1.2-.8 1.7-1.9 1.7-1.2 0-1.8-.5-1.9-1.2zm3.1-2.6c0-1-.4-1.5-1.3-1.5-.8 0-1.2.6-1.2 1.6s.4 1.6 1.2 1.6c1-.1 1.3-.8 1.3-1.7z"/><path id="Pfad_28145" d="M32.5 5.4a1.8 1.8 0 01-1.5.7c-.8 0-1.5-.4-1.5-1.2 0-1 .8-1.2 1.9-1.4.6-.1 1-.2 1-.6 0-.5-.4-.8-1-.8-.7 0-1.1.3-1.1 1h-.7a1.531 1.531 0 011.7-1.5c.9 0 1.6.3 1.6 1.4v2.1c0 .4.1.6.5.5V6c-.1 0-.2.1-.4.1s-.5-.2-.5-.7zm0-1v-.7a1.929 1.929 0 01-1 .3c-.7.1-1.2.2-1.2.9 0 .6.5.7.9.7a1.223 1.223 0 001.3-1.2z"/><path id="Pfad_28146" d="M36.1 2.2a1.91 1.91 0 011.4-.7A1.508 1.508 0 0139 2.7V6h-.7V3c0-.6-.4-.9-1-.9a1.2 1.2 0 00-1.2 1.1V6h-.7V1.7h.7z"/><path id="Pfad_28147" d="M39.7 3.9a2.11 2.11 0 014.2.4 2.077 2.077 0 01-2.1 1.9 2.112 2.112 0 01-2.1-2.1.139.139 0 010-.2zm3.5 0c0-1-.5-1.7-1.4-1.7a1.512 1.512 0 00-1.4 1.7 1.426 1.426 0 102.8 0z"/><path id="Pfad_28148" d="M45.9 1.7h.7v.6a1.513 1.513 0 011.4-.7c1.1 0 1.9.8 1.9 2.3 0 1.4-.7 2.3-1.9 2.3a1.816 1.816 0 01-1.4-.6v1.9h-.7zm3.3 2.2c0-1-.4-1.7-1.2-1.7-1 0-1.4.8-1.4 1.7S47 5.6 48 5.6c.8 0 1.2-.7 1.2-1.7z"/><path id="Pfad_28149" d="M53.4 6v-.6a1.709 1.709 0 01-1.3.7 1.418 1.418 0 01-1.5-1.2V1.7h.7v3a.817.817 0 00.8.9h.2a1.11 1.11 0 001.1-1.1V1.7h.6V6z"/><path id="Pfad_28150" d="M54.7 3.9a2.138 2.138 0 012-2.3h.1c1.3 0 2 1 2 2.5h-3.4c.1.9.5 1.6 1.4 1.6a1.033 1.033 0 001.2-.9h.7a1.927 1.927 0 01-1.9 1.5 2.051 2.051 0 01-2.1-2.1zm.7-.4H58a1.238 1.238 0 00-1.3-1.4 1.416 1.416 0 00-1.3 1.4z"/><path id="Pfad_28151" d="M59.2 3.9c0-1.5.8-2.3 1.9-2.3a1.91 1.91 0 011.4.7V0h.7v6h-.7v-.5a1.75 1.75 0 01-1.4.7c-1.1 0-1.9-.9-1.9-2.3zm3.4 0c0-1-.5-1.7-1.4-1.7-.8 0-1.3.7-1.3 1.7s.4 1.7 1.3 1.7c1 0 1.4-.7 1.4-1.7z"/><path id="Pfad_28152" d="M63.9 3.9a2.138 2.138 0 012-2.3h.1c1.3 0 2 1 2 2.5h-3.4c.1.9.5 1.6 1.4 1.6a1.033 1.033 0 001.2-.9h.7A1.927 1.927 0 0166 6.3a2.051 2.051 0 01-2.1-2.1v-.3zm.7-.4h2.6a1.238 1.238 0 00-1.3-1.4 1.416 1.416 0 00-1.3 1.4z"/><path id="Pfad_28153" d="M0 10.1h.7v.9H0zm0 1.7h.7v4.4H0z"/><path id="Pfad_28154" d="M2.3 12.4a1.91 1.91 0 011.4-.7 1.341 1.341 0 011.5 1.1v3.4h-.7v-3c0-.6-.4-.9-1-.9a1.2 1.2 0 00-1.2 1.1v2.8h-.7v-4.4h.7z"/><path id="Pfad_28155" d="M6.1 10.1h.7v.9h-.7zm0 1.7h.7v4.4h-.7z"/><path id="Pfad_28156" d="M7.4 14a2.138 2.138 0 012-2.3h.2a1.831 1.831 0 011.9 1.5h-.7a1.188 1.188 0 00-1.2-1 1.512 1.512 0 00-1.4 1.7 1.512 1.512 0 001.4 1.7 1.108 1.108 0 001.2-1v-.1h.7a1.752 1.752 0 01-1.7 1.7h-.1a2.112 2.112 0 01-2.1-2.1c-.2 0-.2 0-.2-.1z"/><path id="Pfad_28157" d="M12.1 10.1h.7v.9h-.7zm0 1.7h.7v4.4h-.7z"/><path id="Pfad_28158" d="M16.4 15.6a1.8 1.8 0 01-1.5.7c-.8 0-1.5-.4-1.5-1.2 0-1 .8-1.2 1.9-1.4.6-.1 1-.2 1-.6 0-.5-.4-.8-1-.8-.7 0-1.1.3-1.1 1h-.7a1.531 1.531 0 011.7-1.5c.9 0 1.6.3 1.6 1.4v2.1c0 .4.1.5.5.5v.5c-.1 0-.2.1-.4.1-.1-.1-.5-.4-.5-.8zm0-1v-.7a1.929 1.929 0 01-1 .3c-.7.1-1.2.2-1.2.9 0 .6.5.7.9.7a1.38 1.38 0 001.3-1.2z"/><path id="Pfad_28159" d="M18.7 12.5a1.561 1.561 0 011.3-.8.367.367 0 01.3.1v.7H20a1.309 1.309 0 00-1.3 1.2v2.5H18v-4.4h.7z"/><path id="Pfad_28160" d="M21.8 11.8h.7l.9 2.8a8.492 8.492 0 00.3.9 8.492 8.492 0 00.3-.9l.9-2.8h.7L24 16.2h-.8z"/><path id="Pfad_28161" d="M25.8 14.8h.7c.1.8.6 1 1.3 1s1-.3 1-.7c0-.5-.3-.6-1.1-.8-.9-.2-1.6-.4-1.6-1.3 0-.7.6-1.2 1.6-1.2a1.48 1.48 0 011.7 1.2v.1h-.7c-.1-.6-.4-.8-1-.8s-.9.3-.9.6c0 .5.4.6 1.2.7.9.2 1.6.4 1.6 1.4 0 .9-.7 1.3-1.7 1.3q-1.95 0-2.1-1.5z"/><path id="Pfad_28162" d="M30 14a2.138 2.138 0 012-2.3h.1c1.3 0 2 1 2 2.5h-3.4c.1.9.5 1.6 1.4 1.6a1.033 1.033 0 001.2-.9h.7a1.927 1.927 0 01-1.9 1.5 2.051 2.051 0 01-2.1-2.1V14zm.7-.3h2.6a1.238 1.238 0 00-1.3-1.4c-.8 0-1.2.6-1.3 1.4z"/><path id="Pfad_28163" d="M34.5 14.8h.7c.1.8.6 1 1.3 1s1-.3 1-.7c0-.5-.3-.6-1.1-.8-.9-.2-1.6-.4-1.6-1.3 0-.7.6-1.2 1.6-1.2a1.48 1.48 0 011.7 1.2v.1h-.7c-.1-.6-.4-.8-1-.8s-.9.3-.9.6c0 .5.4.6 1.2.7.9.2 1.6.4 1.6 1.4 0 .9-.7 1.3-1.7 1.3q-2.1 0-2.1-1.5z"/><path id="Pfad_28164" d="M38.8 10.1h.7v.9h-.7zm0 1.7h.7v4.4h-.7z"/><path id="Pfad_28165" d="M40.1 14a2.11 2.11 0 112.1 2.3 2.112 2.112 0 01-2.1-2.1V14zm3.6 0c0-1-.5-1.7-1.4-1.7s-1.4.7-1.4 1.7.5 1.7 1.4 1.7 1.4-.7 1.4-1.7zm-1.3-3.9h.8l-.7 1.1H42z"/><path id="Pfad_28166" d="M45.7 12.4a1.91 1.91 0 011.4-.7 1.341 1.341 0 011.5 1.1v3.4h-.7v-3c0-.6-.4-.9-1-.9a1.2 1.2 0 00-1.2 1.1v2.8H45v-4.4h.7z"/><path id="Pfad_28167" d="M49.4 15.4h.8v.8h-.8z"/></g><g id="Gruppe_1316" transform="translate(396.374 307.762)"><path id="Pfad_28168" d="M.1 0h1l2 5L5 0h1v6h-.7V1s-.2.5-.3.8L3.3 6h-.6L1.1 1.8a6.659 6.659 0 00-.3-.7v5H.1z"/><path id="Pfad_28169" d="M6.8 3.9a2.138 2.138 0 012-2.3h.1c1.3 0 2 1 2 2.5H7.5a1.391 1.391 0 001.4 1.5 1.033 1.033 0 001.2-.9h.7a1.927 1.927 0 01-1.9 1.5 2.051 2.051 0 01-2.1-2.1v-.2zm.7-.4h2.6a1.238 1.238 0 00-1.3-1.4c-.8 0-1.2.6-1.3 1.4z"/><path id="Pfad_28170" d="M11.5 0h.7v.8h-.7zm0 1.7h.7V6h-.7z"/><path id="Pfad_28171" d="M13.8 2.3a1.91 1.91 0 011.4-.7 1.341 1.341 0 011.5 1.1V6H16V3c0-.6-.4-.9-1-.9a1.2 1.2 0 00-1.2 1.1V6h-.7V1.7h.7z"/><path id="Pfad_28172" d="M19 0h.8v3l3-3h1l-2.4 2.4L23.9 6H23l-2.3-3.1-1 1V6H19z"/><path id="Pfad_28173" d="M23.8 3.9a2.11 2.11 0 114.2.4 2.077 2.077 0 01-2.1 1.9 2.112 2.112 0 01-2.1-2.1v-.2zm3.5 0c0-1-.5-1.7-1.4-1.7a1.512 1.512 0 00-1.4 1.7 1.426 1.426 0 102.8 0z"/><path id="Pfad_28174" d="M28.7 0h.7v6h-.7z"/><path id="Pfad_28175" d="M30.4 0h.7v6h-.7z"/><path id="Pfad_28176" d="M31.8 3.9a2.138 2.138 0 012-2.3h.1c1.3 0 2 1 2 2.5h-3.4c.1.9.5 1.6 1.4 1.6a1.033 1.033 0 001.2-.9h.7a1.927 1.927 0 01-1.9 1.5 2.051 2.051 0 01-2.1-2.1v-.3zm.7-.4h2.6a1.238 1.238 0 00-1.3-1.4 1.416 1.416 0 00-1.3 1.4z"/><path id="Pfad_28177" d="M36.4 6.3h.6c.1.5.6.7 1.3.7.8 0 1.3-.4 1.3-1.1v-.7a1.709 1.709 0 01-1.3.7 1.923 1.923 0 01-1.9-2v-.2a1.851 1.851 0 011.7-2.1h.2a1.457 1.457 0 011.3.7v-.6h.7v4.1c0 1.2-.8 1.7-1.9 1.7-1.2 0-1.9-.5-2-1.2zm3.2-2.6c0-1-.4-1.5-1.3-1.5-.8 0-1.2.6-1.2 1.6s.4 1.6 1.2 1.6c1-.1 1.3-.8 1.3-1.7z"/><path id="Pfad_28178" d="M40.9 3.9a2.138 2.138 0 012-2.3h.1c1.3 0 2 1 2 2.5h-3.4c.1.9.5 1.6 1.4 1.6a1.033 1.033 0 001.2-.9h.7A1.927 1.927 0 0143 6.3a2.051 2.051 0 01-2.1-2.1zm.7-.4h2.6a1.238 1.238 0 00-1.3-1.4 1.416 1.416 0 00-1.3 1.4z"/><path id="Pfad_28179" d="M48.3 3.7l-.6.6V6H47V0h.7v3.5l1.9-1.9h.9l-1.7 1.6L50.7 6h-.8z"/><path id="Pfad_28180" d="M53.7 5.4a1.8 1.8 0 01-1.5.7c-.8 0-1.5-.4-1.5-1.2 0-1 .8-1.2 1.9-1.4.6-.1 1-.2 1-.6 0-.5-.4-.8-1-.8-.7 0-1.1.3-1.1 1H51a1.531 1.531 0 011.7-1.5c.9 0 1.6.3 1.6 1.4v2.1c0 .4.1.5.5.5V6c-.1 0-.2.1-.4.1-.3 0-.6-.2-.7-.7zm0-1v-.7a1.929 1.929 0 01-1 .3c-.7.1-1.2.2-1.2.9 0 .6.5.7.9.7a1.13 1.13 0 001.3-1.2z"/><path id="Pfad_28181" d="M56 2.3a1.91 1.91 0 011.4-.7 1.341 1.341 0 011.5 1.1V6h-.7V3c0-.6-.4-.9-1-.9A1.2 1.2 0 0056 3.2V6h-.7V1.7h.7z"/><path id="Pfad_28182" d="M60.5 2.3a1.91 1.91 0 011.4-.7 1.341 1.341 0 011.5 1.1V6h-.7V3c0-.6-.4-.9-1-.9a1.2 1.2 0 00-1.2 1.1V6h-.7V1.7h.7z"/><path id="Pfad_28183" d="M65.3 4.6h.7c.1.8.6 1 1.3 1s1-.3 1-.7c0-.5-.3-.6-1.1-.8-.9-.2-1.6-.4-1.6-1.3 0-.7.6-1.2 1.6-1.2a1.48 1.48 0 011.7 1.2v.1h-.7c-.1-.6-.4-.8-1-.8s-.9.3-.9.6c0 .5.4.6 1.2.7.8.2 1.5.4 1.5 1.4 0 .9-.7 1.3-1.7 1.3a1.638 1.638 0 01-2-1.5z"/><path id="Pfad_28184" d="M69.7 0h.7v.8h-.7zm0 1.7h.7V6h-.7z"/><path id="Pfad_28185" d="M71 3.9a2.138 2.138 0 012-2.3h.2a1.831 1.831 0 011.9 1.5h-.7a1.188 1.188 0 00-1.2-1 1.512 1.512 0 00-1.4 1.7 1.512 1.512 0 001.4 1.7 1.108 1.108 0 001.2-1v-.1h.6a1.752 1.752 0 01-1.7 1.7h-.1A2.075 2.075 0 0171 4z"/><path id="Pfad_28186" d="M76.3 2.3a1.91 1.91 0 011.4-.7 1.341 1.341 0 011.5 1.1V6h-.7V3c0-.6-.4-.9-1-.9a1.2 1.2 0 00-1.2 1.1V6h-.7V0h.7z"/><path id="Pfad_28187" d="M.7 12.4a1.75 1.75 0 011.4-.7 1.341 1.341 0 011.5 1.1v3.4h-.7v-3c0-.6-.4-.9-1-.9a1.2 1.2 0 00-1.2 1.1v2.8H0v-4.4h.7z"/><path id="Pfad_28188" d="M4.5 10.1h.7v.9h-.7zm0 1.7h.7v4.4h-.7z"/><path id="Pfad_28189" d="M5.8 14a2.138 2.138 0 012-2.3H8a1.831 1.831 0 011.9 1.5h-.8a1.188 1.188 0 00-1.2-1A1.607 1.607 0 006.5 14c0 1 .5 1.7 1.4 1.7a1.108 1.108 0 001.2-1v-.1h.7A1.774 1.774 0 018 16.3h-.1a2.112 2.112 0 01-2.1-2.1z"/><path id="Pfad_28190" d="M11.2 12.4a1.91 1.91 0 011.4-.7 1.341 1.341 0 011.5 1.1v3.4h-.7v-3c0-.6-.4-.9-1-.9a1.2 1.2 0 00-1.2 1.1v2.8h-.7v-6h.7z"/><path id="Pfad_28191" d="M14.6 11.8h.6v-1.4h.7v1.4h.8v.6h-.8v2.8a.366.366 0 00.4.4.756.756 0 00.4-.1v.6a4.331 4.331 0 00-.5.1c-.6 0-1-.2-1-.8v-3h-.6z"/><path id="Pfad_28192" d="M21.5 15.6a1.8 1.8 0 01-1.5.7c-.8 0-1.5-.4-1.5-1.2 0-1 .8-1.2 1.9-1.4.6-.1 1-.2 1-.6 0-.5-.4-.8-1-.8-.7 0-1.1.3-1.1 1h-.7a1.531 1.531 0 011.7-1.5c.9 0 1.6.3 1.6 1.4v2.1c0 .4.1.5.5.5v.5c-.1 0-.2.1-.4.1a.953.953 0 01-.5-.8zm0-1v-.7a1.929 1.929 0 01-1 .3c-.7.1-1.2.2-1.2.9 0 .6.5.7.9.7a1.381 1.381 0 001.3-1.2z"/><path id="Pfad_28193" d="M23.8 12.4a1.91 1.91 0 011.4-.7 1.341 1.341 0 011.5 1.1v3.4H26v-3c0-.6-.4-.9-1-.9a1.2 1.2 0 00-1.2 1.1v2.8h-.7v-4.4h.7z"/><path id="Pfad_28194" d="M27.6 11.8h.7v.6a1.709 1.709 0 011.3-.7 1.084 1.084 0 011.1.8 1.561 1.561 0 011.3-.8 1.24 1.24 0 011.3 1.2v3.3h-.7v-3a.961.961 0 00-.7-.9h-.1a1.2 1.2 0 00-1.1 1.2v2.7H30v-3a.779.779 0 00-.6-.9h-.1a1.135 1.135 0 00-1.1 1.2v2.7h-.7z"/><path id="Pfad_28195" d="M34 14a2.138 2.138 0 012-2.3h.1c1.3 0 2 1 2 2.5h-3.4c.1.9.5 1.6 1.4 1.6a1.033 1.033 0 001.2-.9h.7a1.927 1.927 0 01-1.9 1.5 2.051 2.051 0 01-2.1-2.1zm.7-.3h2.6a1.238 1.238 0 00-1.3-1.4 1.416 1.416 0 00-1.3 1.4z"/><path id="Pfad_28196" d="M38.8 10.1h.7v6h-.7z"/><path id="Pfad_28197" d="M40.2 14c0-1.5.8-2.3 1.9-2.3a1.91 1.91 0 011.4.7v-2.3h.7v6h-.7v-.5a1.75 1.75 0 01-1.4.7c-1.2 0-1.9-.9-1.9-2.3zm3.3 0c0-1-.5-1.7-1.4-1.7-.8 0-1.3.7-1.3 1.7s.4 1.7 1.3 1.7c1 0 1.4-.7 1.4-1.7z"/><path id="Pfad_28198" d="M44.9 14a2.138 2.138 0 012-2.3h.1c1.3 0 2 1 2 2.5h-3.4c.1.9.5 1.6 1.4 1.6a1.033 1.033 0 001.2-.9h.7a1.927 1.927 0 01-1.9 1.5 2.051 2.051 0 01-2.1-2.1zm.7-.3h2.6a1.238 1.238 0 00-1.3-1.4c-.8 0-1.2.6-1.3 1.4z"/><path id="Pfad_28199" d="M50.3 12.4a1.91 1.91 0 011.4-.7 1.341 1.341 0 011.5 1.1v3.4h-.7v-3c0-.6-.4-.9-1-.9a1.2 1.2 0 00-1.2 1.1v2.8h-.7v-4.4h.7z"/></g></g><g id="Gruppe_1179" data-name="Gruppe 1179" opacity=".35" fill="#263238"></g></g></svg>